<?xml version="1.0" encoding="utf-8"?>
<!-- Generator: Adobe Illustrator 16.0.0, SVG Export Plug-In . SVG Version: 6.00 Build 0)  -->
<!DOCTYPE svg PUBLIC "-//W3C//DTD SVG 1.1//EN" "http://www.w3.org/Graphics/SVG/1.1/DTD/svg11.dtd">
<svg version="1.1" id="Capa_2" xmlns="http://www.w3.org/2000/svg" xmlns:xlink="http://www.w3.org/1999/xlink" x="0px" y="0px"
	 width="526.53px" height="302.041px" viewBox="0 0 526.53 302.041" enable-background="new 0 0 526.53 302.041"
	 xml:space="preserve">
<g>
	<path fill="#4B3E8B" d="M286.373,170.469c1.446,0,1.974-1.907,1.974-3.579v-1.226c0-1.671-0.527-2.196-1.974-2.196h-42.64
		c-1.445,0-3.387,0.525-3.387,2.196v1.226c0,1.671,1.941,3.579,3.387,3.579H286.373z"/>
	<path fill="#4B3E8B" d="M494.766,176.036c-8.36-4.21-18.351-4.037-27.429-1.748c-5.794,1.461-11.491,3.752-17.468,3.791
		c-5.978,0.039-12.554-2.957-14.286-8.678c-1.823-6.015,2.327-12.226,7.088-16.331c9.681-8.347,22.627-12.517,31.421-21.796
		c8.46-8.929,12.021-22.238,9.15-34.2c-2.872-11.961-12.088-22.204-23.681-26.318c-29.543-10.488-61.732,18.104-91.943,9.726
		c-2.244-0.622-4.604-1.582-5.786-3.588c-1.15-1.957-0.886-4.441-0.227-6.615c3.703-12.166,18.077-19.91,18.705-32.61
		c0.345-6.904-3.735-13.363-8.882-17.98c-21.02-18.86-47.65-13.17-73.365-2.951l-22.956,9.987
		c-9.303,4.214-18.19,8.206-26.309,10.889c-59.274,19.587-119.698,35.948-179.136,55.13c-22.207,7.167-47.93,18.33-52.045,41.3
		c-2.682,14.965,6.012,30.629,19.104,38.361c6.391,3.775,14.234,6.431,17.577,13.058c5.194,10.296-4.14,22.103-13.995,28.091
		c-9.855,5.987-21.879,10.737-26.365,21.361c-2.958,7.001-1.799,15.157,1.129,22.171c10.737,25.724,42.042,36.99,69.883,35.613
		c27.84-1.375,54.244-12.222,81.555-17.806c10.23-2.092,20.516-3.437,30.842-4.2V150.571c0-2.177,2.463-4.102,4.348-4.102h121.678
		c1.886,0,2.975,1.924,2.975,4.102v128.894c42.35,5.075,84.578,8.633,125.89-0.168c14.569-3.104,29.245-7.961,40.497-17.722
		c12.682-11,19.884-27.6,20.971-44.354C514.739,201.235,509.072,183.238,494.766,176.036z M183.347,237.18
		c0,0.887-0.922,1.29-1.809,1.29h-6.652c-0.592,0-0.539,0.484-0.539,1.076v12.271c0,0.887-0.939,1.653-1.826,1.653h-17.15
		c-0.887,0-1.023-0.766-1.023-1.653v-12.271c0-0.591-0.75-1.076-1.342-1.076h-39.178c-0.888,0-1.48-0.402-1.48-1.29V222.1
		c0-0.591,0.001-1.183,0.296-1.774l30.161-66.527c0.443-0.888,1.035-1.329,2.07-1.329h18.775c1.035,0,1.241,0.737,0.946,1.625
		l-30.249,66.231v0.144h18.658c0.592,0,1.342,0.004,1.342-0.587v-21.732c0-0.887,0.137-1.68,1.023-1.68h17.15
		c0.887,0,1.826,0.793,1.826,1.68v21.732c0,0.592-0.053,0.587,0.539,0.587h6.652c0.887,0,1.809,0.891,1.809,1.778V237.18z
		 M378.347,255.112c0,0.887-0.676,1.357-1.563,1.357h-17.741c-0.887,0-1.695-0.47-1.695-1.357v-75.229l-15.584,10.649
		c-0.888,0.591-1.416,0.122-1.416-1.062v-18.333c0-0.887-0.04-1.478,0.699-2.069l16.687-12.417c0.738-0.592,1.458-1.181,2.493-1.181
		h16.558c0.888,0,1.563,1.18,1.563,2.067V255.112z"/>
	<polygon fill="#4B3E8B" points="363.347,176.469 363.347,176.586 363.519,176.469 	"/>
</g>
<circle fill-rule="evenodd" clip-rule="evenodd" fill="#70C9EB" cx="87.414" cy="148.413" r="4.094"/>
<circle fill-rule="evenodd" clip-rule="evenodd" fill="#70C9EB" cx="325.367" cy="34.448" r="1.836"/>
<circle fill-rule="evenodd" clip-rule="evenodd" fill="#70C9EB" cx="178.556" cy="107.692" r="1.836"/>
<circle fill-rule="evenodd" clip-rule="evenodd" fill="#70C9EB" cx="351.406" cy="68.518" r="1.836"/>
<circle fill-rule="evenodd" clip-rule="evenodd" fill="#70C9EB" cx="431.948" cy="122.007" r="1.836"/>
<circle fill-rule="evenodd" clip-rule="evenodd" fill="#70C9EB" cx="44.579" cy="128.307" r="1.837"/>
<circle fill-rule="evenodd" clip-rule="evenodd" fill="#FFFFFF" cx="304.898" cy="100.802" r="2.365"/>
<circle fill-rule="evenodd" clip-rule="evenodd" fill="#FFFFFF" cx="404.267" cy="209.464" r="2.365"/>
<circle fill-rule="evenodd" clip-rule="evenodd" fill="#FFFFFF" cx="474.034" cy="213.399" r="2.365"/>
<circle fill-rule="evenodd" clip-rule="evenodd" fill="#FFFFFF" cx="465.336" cy="105.327" r="2.365"/>
<circle fill-rule="evenodd" clip-rule="evenodd" fill="#FFFFFF" cx="101.903" cy="247.89" r="2.365"/>
<circle fill-rule="evenodd" clip-rule="evenodd" fill="#FFFFFF" cx="238.441" cy="76.704" r="2.365"/>
<polygon fill-rule="evenodd" clip-rule="evenodd" fill="#FFFFFF" points="212.132,134.172 215.286,135.973 212.068,137.655 
	210.266,140.808 208.584,137.59 205.431,135.789 208.649,134.106 210.45,130.954 "/>
<polygon fill-rule="evenodd" clip-rule="evenodd" fill="#FFFFFF" points="360.639,100.995 362.696,102.171 360.596,103.27 
	359.42,105.327 358.32,103.227 356.264,102.051 358.364,100.953 359.539,98.894 "/>
<polygon fill-rule="evenodd" clip-rule="evenodd" fill="#FFFFFF" points="107.445,199.786 109.503,200.963 107.403,202.062 
	106.227,204.12 105.127,202.019 103.07,200.843 105.171,199.745 106.347,197.687 "/>
<polygon fill-rule="evenodd" clip-rule="evenodd" fill="#FFFFFF" points="118.87,115.839 120.927,117.014 118.827,118.112 
	117.65,120.171 116.552,118.07 114.494,116.894 116.595,115.796 117.771,113.738 "/>
<polygon fill-rule="evenodd" clip-rule="evenodd" fill="#FFFFFF" points="55.917,241.116 57.976,242.292 55.875,243.39 
	54.699,245.448 53.601,243.347 51.543,242.172 53.643,241.073 54.819,239.015 "/>
<polygon fill-rule="evenodd" clip-rule="evenodd" fill="#FFFFFF" points="174.664,73.224 176.722,74.4 174.621,75.499 
	173.445,77.556 172.347,75.456 170.289,74.28 172.389,73.182 173.565,71.123 "/>
<polygon fill-rule="evenodd" clip-rule="evenodd" fill="#FFFFFF" points="429.892,183.03 431.949,184.206 429.849,185.305 
	428.673,187.363 427.574,185.263 425.516,184.086 427.617,182.987 428.795,180.929 "/>
<polygon fill-rule="evenodd" clip-rule="evenodd" fill="#FFFFFF" points="455.291,265.892 457.351,267.068 455.248,268.167 
	454.072,270.226 452.975,268.125 450.915,266.948 453.018,265.85 454.192,263.792 "/>
<path fill="#70C9EB" d="M303.002,217.978c0,21.424-17.365,38.787-38.784,38.787c-21.421,0-38.785-17.363-38.785-38.787
	c0-21.42,17.364-38.786,38.785-38.786C285.637,179.192,303.002,196.558,303.002,217.978z"/>
<circle fill="#70C9EB" stroke="#4B3E8B" stroke-width="3" stroke-miterlimit="10" cx="264.217" cy="218.151" r="43.122"/>
<g>
	<circle fill="#F5F5F5" cx="264.202" cy="218.277" r="35.981"/>
</g>
<g>
	<defs>
		<circle id="SVGID_1_" cx="264.202" cy="218.277" r="35.981"/>
	</defs>
	<clipPath id="SVGID_2_">
		<use xlink:href="#SVGID_1_"  overflow="visible"/>
	</clipPath>
	<g clip-path="url(#SVGID_2_)">
		<g>
			<path fill="#2A2D34" d="M270.748,234.237c0,0,10.02,1.464,11.499,3.006c1.289,1.343,3.967,14.196,4.588,17.018
				c-17.59,0-22.634,0-22.634,0v-18.251L270.748,234.237z"/>
			<rect x="258.935" y="227.591" fill="#D9A78C" width="10.536" height="11.555"/>
			<g>
				<path fill="#EAC0A7" d="M264.201,194.288c5.118,0,13.208,2.912,13.208,16.538c0,7.872-2.564,13.027-3.684,14.452
					c-1.028,1.312-6.81,4.106-9.524,4.106C264.201,215.613,264.201,194.288,264.201,194.288z"/>
				<path fill="#EAC0A7" d="M279.954,214.078c0.225-2.179-0.813-4.11-2.315-4.317c-1.507-0.208-2.909,1.39-3.137,3.568
					c-0.225,2.176,0.813,4.109,2.316,4.319C278.326,217.853,279.729,216.253,279.954,214.078z"/>
			</g>
			<g>
				<path fill="#F2D7BC" d="M264.203,194.288c-5.117,0-13.208,2.912-13.208,16.538c0,7.872,2.567,13.027,3.683,14.452
					c1.028,1.312,6.812,4.106,9.525,4.106C264.203,215.613,264.203,194.288,264.203,194.288z"/>
				<path fill="#F2D7BC" d="M248.45,214.078c-0.226-2.179,0.811-4.11,2.317-4.317c1.506-0.208,2.911,1.39,3.135,3.568
					c0.225,2.176-0.812,4.109-2.318,4.319C250.078,217.853,248.677,216.253,248.45,214.078z"/>
			</g>
			<path fill="#690102" d="M257.312,197.14c0,0-4.469,5.301-2.759,10.244c0.286,5.894-0.283,7.893-2.186,9.509
				c0.476-5.704-0.095-7.606-2.187-6.942C249.326,205.482,251.171,193.445,257.312,197.14z"/>
			<path fill="#690102" d="M271.059,197.14c0,0,4.469,5.301,2.755,10.244c-0.284,5.894,0.287,7.893,2.188,9.509
				c-0.475-5.704,0.096-7.606,2.188-6.942C279.045,205.482,277.198,193.445,271.059,197.14z"/>
			<path fill="#2F343A" d="M257.656,234.237c0,0-10.02,1.464-11.5,3.006c-1.288,1.343-3.965,14.196-4.585,17.018
				c17.589,0,22.631,0,22.631,0v-18.251L257.656,234.237z"/>
			<polyline fill="#B9C7D0" points="270.868,233.97 264.201,235.336 257.536,233.97 264.201,254.26 			"/>
			<polygon fill="#4B3E8B" points="263.647,238.07 262.558,251.797 264.201,254.26 265.848,251.797 264.756,238.07 			"/>
			<path fill="#3A404C" d="M259.396,242.727l-5.304-7.864c1.452-0.523,3.009-0.919,4.646-1.187l5.464,20.584l-7.662-10.968
				L259.396,242.727z"/>
			<path fill="#3A404C" d="M269.011,242.727l5.304-7.864c-1.454-0.523-3.009-0.919-4.649-1.187l-5.462,20.584l7.659-10.968
				L269.011,242.727z"/>
			<path fill="#4B3E8B" d="M266.001,237.194l-1.798,1.852l-1.799-1.852l1.799-1.857L266.001,237.194z"/>
			<polygon fill="#FFFFFF" points="264.201,235.336 269.551,232.633 272.309,234.237 266.582,238.817 			"/>
			<polygon fill="#FFFFFF" points="264.203,235.336 258.852,232.633 256.094,234.237 261.723,238.817 			"/>
		</g>
		<path fill="#690102" d="M276.825,199.463c-2.103-8.649-14.928-15.442-23.938-1.866c-0.58,2.68,1.938,3.935,1.938,3.935
			s1.682-3.935,9.394-2.118c3.842-0.841,7.584-1.467,9.31,2.087C275.258,205.051,276.825,199.463,276.825,199.463z"/>
		<path fill="#690102" d="M271.771,223.547c-2.644,0-4.535-2.148-7.569-2.148c-3.031,0-4.924,2.148-7.569,2.148
			c-2.899,0-4.725-4.997-5.274-6.75c0.746,5.042,2.46,8.342,3.319,9.439c1.028,1.314,6.812,4.109,9.523,4.109h0.002l0,0
			c2.715,0,8.494-2.795,9.522-4.109c0.859-1.097,2.574-4.401,3.323-9.444C276.499,218.538,274.674,223.547,271.771,223.547z"/>
		<path fill="#FFFFFF" d="M264.203,225.949c0.891,0,1.615-0.378,1.615-0.84h-3.232C262.586,225.571,263.311,225.949,264.203,225.949
			z"/>
	</g>
</g>
<polyline fill="none" stroke="#EBCF15" stroke-width="3" stroke-linejoin="round" stroke-miterlimit="10" points="203.847,269.469 
	203.847,153.969 319.847,153.969 319.847,277.469 "/>
<g>
	<linearGradient id="SVGID_3_" gradientUnits="userSpaceOnUse" x1="234.9019" y1="89.3047" x2="273.5732" y2="89.3047">
		<stop  offset="0" style="stop-color:#C6A518"/>
		<stop  offset="1" style="stop-color:#E8C018"/>
	</linearGradient>
	<polygon fill="url(#SVGID_3_)" points="254.401,35.613 273.573,138.117 255.316,142.997 234.902,42.144 	"/>
	<linearGradient id="SVGID_4_" gradientUnits="userSpaceOnUse" x1="254.5278" y1="79.1846" x2="298.0635" y2="79.1846">
		<stop  offset="0" style="stop-color:#E8C018"/>
		<stop  offset="1" style="stop-color:#F3DE86"/>
	</linearGradient>
	<polygon fill="url(#SVGID_4_)" points="275.107,26.725 254.528,136.751 272.783,141.631 298.063,16.738 	"/>
	<path fill="#F9D53D" d="M277.347,163.308c0,1.84-2.104,4.161-3.833,4.161h-19.45c-1.729,0-2.717-2.321-2.717-4.161v-33.446
		c0-1.839,0.988-2.393,2.717-2.393h19.45c1.729,0,3.833,0.553,3.833,2.393V163.308z"/>
	<circle fill="#333333" cx="263.551" cy="136.905" r="4.609"/>
</g>
</svg>
