<?xml version="1.0" encoding="utf-8"?>
<!-- Generator: Adobe Illustrator 22.1.0, SVG Export Plug-In . SVG Version: 6.00 Build 0)  -->
<svg version="1.1" id="Capa_1" xmlns="http://www.w3.org/2000/svg" xmlns:xlink="http://www.w3.org/1999/xlink" x="0px" y="0px"
	 viewBox="0 0 137 79" style="enable-background:new 0 0 137 79;" xml:space="preserve">
<style type="text/css">
	.st0{fill:#999999;}
</style>
<path class="st0" d="M35.4,32.8c0.5,0,1,0.4,1,1c0,0.5-0.4,1-1,1s-1-0.4-1-1C34.4,33.3,34.8,32.8,35.4,32.8z"/>
<path class="st0" d="M61.1,29.5c0,1.9-1.5,3.4-3.4,3.4H41.2c-0.5,0-1,0.4-1,1c0,0.5,0.4,1,1,1h16.5c2.9,0,5.3-2.4,5.3-5.3
	s-2.4-5.3-5.3-5.3s-5.3,2.4-5.3,5.3c0,0.5,0.4,1,1,1s1-0.4,1-1c0-1.9,1.5-3.4,3.4-3.4S61.1,27.6,61.1,29.5z"/>
<path class="st0" d="M13.5,33.8c0,0.5,0.4,1,1,1h15.1c0.5,0,1-0.4,1-1c0-0.5-0.4-1-1-1H14.5C14,32.8,13.5,33.3,13.5,33.8z"/>
<path class="st0" d="M61.4,66.8c0-0.5,0.4-1,1-1s1,0.4,1,1c0,0.5-0.4,1-1,1S61.4,67.4,61.4,66.8z"/>
<path class="st0" d="M20.5,67.8h36.1c0.5,0,1-0.4,1-1c0-0.5-0.4-1-1-1H20.5c-0.5,0-1,0.4-1,1S20,67.8,20.5,67.8z"/>
<path class="st0" d="M76.5,72.8h27.1c0.5,0,1-0.4,1-1c0-0.5-0.4-1-1-1H76.5c-0.5,0-1,0.4-1,1S76,72.8,76.5,72.8z"/>
<path class="st0" d="M68.5,67.8h50.1c0.5,0,1-0.4,1-1c0-0.5-0.4-1-1-1H68.5c-0.5,0-1,0.4-1,1S68,67.8,68.5,67.8z"/>
<path class="st0" d="M4,41c0,0.5,0.4,1,1,1h34.8c0.5,0,1-0.4,1-1s-0.4-1-1-1H5C4.4,40,4,40.4,4,41z"/>
<g>
	<path class="st0" d="M79.7,15.3c-0.6,0-1.1,0.5-1.1,1.1c0,0.1,0,0.2,0,0.2l1.7,7.7l-0.1,0.1c-4.1,10.2-1.8,21.3,5.9,29
		c5,5,11.8,7.8,19,7.8c3.5,0,6.8-0.6,10-1.9l0.1-0.1l7.6,1.7c0.1,0,0.2,0,0.3,0c0.6,0,1.1-0.5,1.1-1.1c0-0.5-0.3-0.9-0.8-1.1h-0.1
		l-4.8-1.1l1-0.6c1.7-1.1,3.3-2.3,4.6-3.7c0.6-0.6,1.2-1.3,1.9-2.1l0.1-0.1l6.5-1.4c0.5-0.1,0.9-0.6,0.9-1.1c0-0.7-0.7-1.2-1.3-1.1
		l-4.1,0.9l0.5-1c4.9-8.8,4.9-18-0.2-26.6l-0.1-0.1c-0.2-0.3-0.6-0.5-0.9-0.5c-0.6,0-1.1,0.5-1.1,1.1c0,0.2,0,0.4,0.1,0.5l0.2,0.4
		c2.1,3.8,3.3,7.9,3.3,11.9v1.5l-3-3.9l0,0l-0.3-0.4c-0.2-0.4-0.6-0.6-1-0.6c-0.7,0-1.2,0.5-1.2,1.2c0,0.3,0.2,0.6,0.3,0.8l0.4,0.4
		l0,0l4.4,5.5v0.2c-0.9,4.8-3.3,9.2-6.9,12.8c-1.2,1.2-2.6,2.4-4.2,3.3l-1.2,0.8l2.7-7.5c0-0.1,0.1-0.3,0.1-0.4
		c0-0.6-0.5-1.1-1.1-1.1c-0.5,0-0.9,0.3-1,0.7l-0.2,0.4l0,0l-3.3,9.1l-0.2,0.1c-6,2.3-12.9,2.2-18.8-0.4l-1.7-0.7l1.8-0.2
		c2.5-0.3,5.2-1.2,7.9-2.6l0.2-0.1l8,2.6c0.1,0,0.2,0.1,0.3,0.1c0.6,0,1.1-0.5,1.1-1.1c0-0.5-0.3-0.9-0.8-1l-0.4-0.1l-5.7-1.8
		l0.8-0.6c2.1-1.4,4-3,5.7-4.7c1.2-1.2,2.4-2.6,3.7-4.3l0.2-0.2l9,0.3l0,0c0.7,0,1.2-0.5,1.2-1.1s-0.5-1.1-1.1-1.1l-7.6-0.3l0.4-0.7
		c3.5-5.9,4.7-11.7,3.1-15.9c-0.2-0.4-0.6-0.7-1-0.7c-0.6,0-1.1,0.5-1.1,1.1c0,0.1,0,0.2,0.1,0.3l0.2,0.4l0,0c1,3.3,0.1,8-2.6,12.8
		l-0.6,1l-1.1-3.7l0,0l-0.1-0.5c-0.1-0.5-0.6-0.8-1.1-0.8c-0.6,0-1.1,0.5-1.1,1.1c0,0.1,0,0.2,0.1,0.3l0.2,0.5l0,0l1.6,5.4l-0.1,0.2
		c-1.2,1.6-2.4,3-3.5,4.2c-3.1,3.1-6.6,5.5-10.2,7.1l-1.2,0.5l1.6-3.6l0,0l0.2-0.5c0.1-0.1,0.1-0.3,0.1-0.4c0-0.6-0.5-1.1-1.1-1.1
		c-0.5,0-0.9,0.3-1,0.7l-2.5,5.8L97,53.3c-3.1,0.7-5.7,0.5-7.6-0.6l-0.6-0.3L99,42.2h8.6c0.7,0,1.1-0.5,1.1-1.1s-0.5-1.1-1.1-1.1
		H101l12.5-12.5l0,0l0.4-0.4c0.2-0.2,0.4-0.5,0.4-0.8c0-0.6-0.5-1.1-1.1-1.1c-0.3,0-0.6,0.1-0.8,0.4l-6.1,6.1v-6.5
		c0-0.7-0.5-1.2-1.1-1.2s-1.1,0.5-1.1,1.1v0.5l0,0V34L92.6,45.5v-5.9V39v-0.1c0-0.6-0.5-1.1-1.1-1.1s-1.1,0.5-1.1,1.1v0.7v8.1
		L87.1,51l-0.3-0.6c-2.5-4.4-0.5-12,5-18.8l0.2-0.3l6,1.9c0.1,0,0.3,0.1,0.4,0.1c0.6,0,1.1-0.5,1.1-1.1c0-0.5-0.3-0.9-0.8-1.1
		L98.2,31l0,0l-4.6-1.5l0.6-0.6c0.1-0.1,0.1-0.1,0.2-0.2s0.2-0.2,0.3-0.3c6.7-6.7,15.2-10.2,20.6-8.5l0,0l0.5,0.2
		c0.7,0.3,1.5-0.3,1.5-1c0-0.5-0.3-0.9-0.7-1l-0.5-0.2l0,0c-4.3-1.4-10.4,0-16.3,3.8l-0.9,0.5l0.7-7.5l0,0v-0.5
		c0-0.7-0.5-1.2-1.1-1.2s-1,0.4-1.1,1v0.5l0,0L96.6,24l-0.2,0.1C95,25,94,25.9,93,26.9c-1.8,1.8-3.4,3.7-4.7,5.7l-0.6,0.8l-1.9-5.9
		c-0.1-0.6-0.6-1-1.1-1c-0.6,0-1.1,0.5-1.1,1.1c0,0.1,0,0.2,0.1,0.4l0.2,0.5l0,0l2.4,7.6l-0.1,0.2c-1.4,2.7-2.2,5.4-2.5,8L83.4,46
		l-0.7-1.7c-2.6-6.1-2.8-12.6-0.4-18.8l0.1-0.2l9.5-3.4c0.5-0.2,0.7-0.6,0.7-1c0-0.6-0.5-1.1-1.1-1.1c-0.1,0-0.2,0-0.3,0h-0.1
		l-7.4,2.6l0.8-1.2c1-1.5,2.1-2.9,3.3-4.2c3.7-3.7,8.5-6.2,13.4-7h0.2l5.3,4.8c0.2,0.1,0.4,0.3,0.7,0.3c0.7,0,1.2-0.5,1.2-1.2
		c0-0.4-0.2-0.7-0.4-0.9l-0.4-0.3l0,0l-3.4-3h1.4c4.1,0.1,8,1.2,11.5,3.2l0,0l0.4,0.3c0.2,0.1,0.4,0.2,0.6,0.2
		c0.6,0,1.1-0.5,1.1-1.1c0-0.4-0.2-0.8-0.6-1l-0.5-0.3l0,0c-8.1-4.6-18.2-4.6-26.3,0l-1,0.6l1-3.9c0-0.6-0.5-1.1-1.1-1.1
		c-0.5,0-0.9,0.3-1,0.7l0,0c0,0.1,0,0.1,0,0.2l-1.6,6.1l-0.1,0.1c-0.7,0.6-1.3,1.1-1.9,1.7c-1.5,1.5-2.7,3.4-3.7,4.8l-0.6,1
		l-1.1-4.8C80.7,15.7,80.3,15.3,79.7,15.3z"/>
</g>
</svg>
