<?xml version="1.0" encoding="utf-8"?>
<!-- Generator: Adobe Illustrator 16.0.0, SVG Export Plug-In . SVG Version: 6.00 Build 0)  -->
<!DOCTYPE svg PUBLIC "-//W3C//DTD SVG 1.1//EN" "http://www.w3.org/Graphics/SVG/1.1/DTD/svg11.dtd">
<svg version="1.1" id="Capa_1" xmlns="http://www.w3.org/2000/svg" xmlns:xlink="http://www.w3.org/1999/xlink" x="0px" y="0px"
	 width="215.167px" height="34.375px" viewBox="0 0 215.167 34.375" enable-background="new 0 0 215.167 34.375"
	 xml:space="preserve">
<g>
	<path fill="#FFFFFF" d="M28.986,11.73c-0.051,0.049-0.102,0.094-0.157,0.141C28.875,11.833,28.926,11.787,28.986,11.73z"/>
	<g>
		<g>
			<g>
				<g>
					<path fill="#FFFFFF" d="M26.432,2.852c-1.808-0.285-3.559,0.206-4.867,1.21c-0.047,0.039-0.101,0.079-0.15,0.117
						c-0.09,0.068-0.183,0.127-0.274,0.189c-0.022,0.015-0.044,0.026-0.065,0.041c-0.162,0.108-0.332,0.207-0.5,0.299
						c-0.06,0.04-0.098,0.067-0.098,0.067l0,0c-1.157,0.598-2.523,0.835-3.929,0.612L15.37,5.201
						c-1.434-0.356-2.71-1.063-3.667-2.043c-0.054-0.058-0.033-0.042-0.091-0.095c-0.033-0.036-0.118-0.105-0.149-0.14
						c-0.051-0.047-0.103-0.096-0.159-0.141C9.665,1.466,7.183,1.626,5.763,3.139C4.978,3.971,4.68,5.04,4.841,6.053
						C4.85,6.088,4.853,6.13,4.861,6.167C5.012,6.96,5.426,7.725,6.128,8.29c0.708,0.57,1.57,0.865,2.439,0.896h0.127
						c0.521,0.002,1.027-0.079,1.512-0.263c0.029-0.015,0.059-0.027,0.088-0.042c0.095-0.037,0.186-0.082,0.274-0.127
						c1.144-0.473,2.638-0.611,4.06-0.501l1.353,0.213V8.462c0.861,0.137,1.646,0.439,2.329,0.863
						c0.142,0.117,0.345,0.342,0.343,0.677c0,0.126-0.03,0.268-0.104,0.433l0.019,0.005c-0.311,0.74-0.724,1.446-1.221,2.076
						c-0.354,0.446-0.75,0.854-1.196,1.198c-1.715,1-3.666,1.404-5.618,1.683c-0.241,0.034-0.482,0.067-0.726,0.098
						c-0.272,0.022-0.541,0.056-0.805,0.103c-0.037,0.006-0.073,0.009-0.109,0.014c0,0,0.004,0.001,0.006,0.001
						c-3.787,0.7-6.642,3.796-6.642,7.508c0,4.228,3.704,7.658,8.27,7.658c4.493,0,8.14-3.321,8.259-7.456
						c0.004,0.036,0.009,0.069,0.015,0.107c-0.006-0.066-0.006-0.129-0.01-0.192c0.001-0.04,0.005-0.08,0.005-0.117
						c0-0.165-0.016-0.322-0.026-0.482c0-0.033,0.002-0.064,0.002-0.093c0.008-1.76,0.499-3.248,1.55-4.676
						c0.431-0.586,0.954-1.161,1.584-1.739c1.437-1.238,3.083-1.504,4.453-2.013c0.871-0.171,1.713-0.523,2.457-1.07
						c0.108-0.08,0.209-0.165,0.308-0.252l-0.021,0.001c0,0,0.061-0.04,0.157-0.114c0.057-0.042,0.111-0.09,0.168-0.135
						c0.99-0.816,1.706-1.928,1.945-3.235C31.935,6.263,29.72,3.372,26.432,2.852z"/>
					<ellipse fill="#FFFFFF" cx="28.675" cy="29.072" rx="3.404" ry="3.153"/>
					<path fill="#FFFFFF" d="M29.425,12.547c-0.057,0.045-0.111,0.094-0.168,0.135C29.305,12.647,29.359,12.603,29.425,12.547z"/>
					<path fill="#FFFFFF" d="M20.575,4.708c0.169-0.092,0.338-0.191,0.5-0.299C20.841,4.537,20.672,4.643,20.575,4.708z"/>
					<path fill="#FFFFFF" d="M29.257,12.682c-0.096,0.074-0.157,0.114-0.157,0.114l0.021-0.001c0.029-0.025,0.061-0.048,0.088-0.072
						C29.228,12.709,29.241,12.695,29.257,12.682z"/>
				</g>
			</g>
		</g>
	</g>
</g>
<g>
	<g>
		<path fill="#FFFFFF" d="M49.714,26.901c-0.956,0-1.732-0.774-1.732-1.731c0-0.959,0.776-1.734,1.732-1.734l3.509-0.014
			c0.321,0,0.582,0.262,0.582,0.583s-0.261,0.583-0.582,0.583h-3.509c-0.321,0-0.581,0.26-0.581,0.582
			c0,0.32,0.259,0.582,0.581,0.582h2.356c0.956,0,1.734,0.775,1.734,1.734c0,0.957-0.778,1.732-1.734,1.732l-3.506,0.012
			c-0.322,0-0.582-0.259-0.582-0.582c0-0.32,0.26-0.581,0.582-0.581h3.506c0.322,0,0.583-0.26,0.583-0.581
			c0-0.322-0.261-0.583-0.583-0.583L49.714,26.901z"/>
		<path fill="#FFFFFF" d="M82.393,23.422h-4.646c-0.321,0-0.582,0.261-0.582,0.582c0,0.322,0.261,0.583,0.582,0.583h1.742v4.072
			c0,0.321,0.261,0.581,0.58,0.581c0.325,0,0.583-0.26,0.583-0.581l-0.001-4.072h1.742c0.321,0,0.585-0.261,0.585-0.583
			C82.978,23.684,82.714,23.422,82.393,23.422z"/>
		<path fill="#FFFFFF" d="M74.263,26.889c0.862-0.101,1.531-0.832,1.531-1.721c0-0.957-0.777-1.734-1.736-1.734l-4.077-0.012
			l-0.015,5.232c0,0.323,0.262,0.582,0.583,0.582c0.322,0,0.581-0.259,0.581-0.582v-1.753h1.51l2.159,2.169
			c0.226,0.227,0.596,0.227,0.821,0c0.229-0.228,0.229-0.598,0-0.824L74.263,26.889z M71.132,24.586h2.926
			c0.324,0,0.583,0.26,0.583,0.582c0,0.32-0.26,0.582-0.583,0.582h-2.926V24.586z"/>
		<path fill="#FFFFFF" d="M59.375,23.431h-2.294c-0.969,0-1.754,0.784-1.754,1.753v3.471c0,0.323,0.261,0.582,0.582,0.582
			c0.323,0,0.582-0.259,0.582-0.582l-0.014-3.563c0-0.289,0.353-0.521,0.786-0.521c0,0,0.239-0.004,0.382,0.02l-0.001,4.064
			c0,0.323,0.262,0.582,0.583,0.582c0,0,0,0,0.001,0l0,0c0.321,0,0.581-0.259,0.581-0.582l-0.002-4.064
			c0.145-0.023,0.382-0.02,0.382-0.02c0.434,0,0.787,0.232,0.787,0.521l-0.015,3.563c0,0.323,0.262,0.582,0.584,0.582
			c0.32,0,0.58-0.259,0.58-0.582v-3.471C61.127,24.215,60.342,23.431,59.375,23.431z"/>
		<path fill="#FFFFFF" d="M66.712,23.431h-2.295c-0.971,0-1.755,0.784-1.755,1.753v3.471c0,0.323,0.261,0.582,0.583,0.582
			c0.322,0,0.583-0.259,0.583-0.582l-0.008-1.738h3.485l-0.007,1.738c0,0.323,0.263,0.582,0.583,0.582
			c0.321,0,0.581-0.259,0.581-0.582v-3.471C68.464,24.215,67.679,23.431,66.712,23.431z M63.817,25.768l-0.002-0.676
			c0-0.287,0.354-0.521,0.787-0.521h1.925c0.433,0,0.784,0.234,0.784,0.521l-0.002,0.676H63.817z"/>
	</g>
	<g>
		<path fill="#FFFFFF" d="M91.265,26.9c-0.958,0-1.734-0.774-1.734-1.732c0-0.957,0.776-1.733,1.734-1.733l3.508-0.013
			c0.319,0,0.581,0.262,0.581,0.582c0,0.321-0.262,0.584-0.581,0.584h-3.508c-0.322,0-0.581,0.26-0.581,0.581
			c0,0.32,0.259,0.582,0.581,0.582h2.355c0.957,0,1.733,0.776,1.733,1.731c0,0.958-0.776,1.734-1.733,1.734l-3.507,0.014
			c-0.324,0-0.582-0.26-0.582-0.581c0-0.322,0.26-0.581,0.582-0.581h3.507c0.32,0,0.581-0.261,0.581-0.584
			c0-0.32-0.261-0.581-0.581-0.581L91.265,26.9z"/>
		<path fill="#FFFFFF" d="M116.718,23.422h-4.646c-0.318,0-0.58,0.262-0.58,0.582c0,0.321,0.262,0.584,0.58,0.584h1.743v4.07
			c0,0.322,0.259,0.583,0.583,0.583c0.321,0,0.58-0.261,0.58-0.583l-0.002-4.07h1.742c0.323,0,0.584-0.263,0.584-0.584
			C117.302,23.684,117.042,23.422,116.718,23.422z"/>
		<path fill="#FFFFFF" d="M137.466,26.889c0.859-0.102,1.529-0.832,1.529-1.721c0-0.957-0.775-1.733-1.732-1.733l-4.081-0.013
			l-0.013,5.232c0,0.322,0.261,0.584,0.582,0.584c0.32,0,0.582-0.262,0.582-0.584v-1.752h1.51l2.158,2.166
			c0.227,0.229,0.596,0.229,0.82,0c0.229-0.226,0.229-0.596,0-0.822L137.466,26.889z M134.333,24.586h2.929
			c0.323,0,0.581,0.261,0.581,0.582c0,0.32-0.258,0.582-0.581,0.582h-2.929V24.586z"/>
		<path fill="#FFFFFF" d="M120.551,29.238h2.294c0.969,0,1.752-0.787,1.752-1.756v-3.469c0-0.322-0.26-0.582-0.58-0.582
			c-0.324,0-0.582,0.26-0.582,0.582l0.012,3.563c0,0.288-0.352,0.524-0.784,0.524c0,0-0.239,0-0.383-0.023l0.003-4.064
			c0-0.32-0.262-0.582-0.582-0.582h-0.002h-0.001c-0.32,0-0.581,0.262-0.581,0.582l0.001,4.064
			c-0.144,0.023-0.382,0.023-0.382,0.023c-0.434,0-0.785-0.236-0.785-0.524l0.013-3.563c0-0.322-0.26-0.582-0.582-0.582
			c-0.32,0-0.583,0.26-0.583,0.582v3.469C118.797,28.451,119.582,29.238,120.551,29.238z"/>
		<path fill="#FFFFFF" d="M129.91,23.43h-2.292c-0.97,0-1.755,0.784-1.755,1.754v3.471c0,0.322,0.262,0.584,0.584,0.584
			c0.321,0,0.581-0.262,0.581-0.584l-0.007-1.739h3.485l-0.009,1.739c0,0.322,0.26,0.584,0.584,0.584c0.322,0,0.58-0.262,0.58-0.584
			v-3.471C131.664,24.215,130.88,23.43,129.91,23.43z M127.015,25.768l-0.001-0.677c0-0.288,0.354-0.521,0.786-0.521h1.926
			c0.434,0,0.786,0.233,0.786,0.521l-0.003,0.677H127.015z"/>
		<path fill="#FFFFFF" d="M109.388,23.43h-1.3h-1.634h-0.517c-0.967,0-1.75,0.784-1.75,1.754v3.471c0,0.322,0.26,0.584,0.58,0.584
			c0.322,0,0.582-0.262,0.582-0.584l-0.006-1.739h2.395c0.002-0.001,0.002-0.003,0.004-0.005l0.505,0.002
			c0.315,0,0.572-0.256,0.572-0.572c0-0.314-0.257-0.571-0.572-0.571h-0.478c0-0.001,0-0.001,0-0.001h-2.431l-0.003-0.677
			c0-0.288,0.353-0.521,0.786-0.521h1.87l1.395,0.005c0.318,0,0.571-0.256,0.571-0.572C109.958,23.688,109.704,23.43,109.388,23.43z
			"/>
		<path fill="#FFFFFF" d="M145.721,28.102l-1.396,0.006h-1.868c-0.395,0-0.721-0.193-0.778-0.445l-0.003-0.746h2.396
			c0.001-0.002,0.001-0.004,0.001-0.005l0.508,0.001c0.316,0,0.572-0.256,0.572-0.572v-0.002v-0.002c0-0.315-0.256-0.57-0.572-0.57
			l-0.508,0.001c0-0.001,0-0.003-0.001-0.005h-2.396l0.003-0.746c0.058-0.253,0.384-0.446,0.778-0.446h1.868l1.396,0.005
			c0.315,0,0.569-0.256,0.569-0.572c0-0.314-0.256-0.57-0.569-0.57h-3.448c-0.969,0-1.754,0.783-1.754,1.752v0.575v1.228v0.507
			c0,0.968,0.785,1.755,1.754,1.755h3.448c0.315,0,0.569-0.258,0.569-0.574C146.291,28.358,146.037,28.102,145.721,28.102z"/>
		<path fill="#FFFFFF" d="M102.659,25.114c-0.037-0.935-0.806-1.685-1.751-1.685h-2.295c-0.949,0-1.718,0.756-1.75,1.697h-0.001
			v0.033c0,0.009-0.001,0.016-0.001,0.023h0.001l-0.001,0.736v1.578c0,0.969,0.785,1.754,1.752,1.754h2.295
			c0.968,0,1.753-0.785,1.753-1.754l0.016-2.385L102.659,25.114L102.659,25.114z M101.51,27.592c0,0.289-0.353,0.521-0.788,0.521
			H98.8c-0.436,0-0.787-0.232-0.787-0.521v-2.501c0-0.288,0.351-0.521,0.787-0.521h1.922c0.435,0,0.788,0.233,0.788,0.521V27.592z"
			/>
	</g>
	<g>
		<path fill="#FFFFFF" d="M208.357,26.918c-0.957,0-1.734-0.775-1.734-1.733c0-0.956,0.777-1.732,1.734-1.732l3.508-0.013
			c0.322,0,0.581,0.26,0.581,0.582c0,0.32-0.259,0.58-0.581,0.58h-3.508c-0.32,0-0.582,0.262-0.582,0.582
			c0,0.322,0.262,0.582,0.582,0.582l2.356,0.001c0.956,0,1.732,0.776,1.732,1.734c0,0.956-0.776,1.731-1.732,1.731l-3.509,0.014
			c-0.32,0-0.582-0.26-0.582-0.58c0-0.322,0.262-0.582,0.582-0.582h3.509c0.32,0,0.582-0.262,0.582-0.582
			c0-0.321-0.262-0.584-0.582-0.584H208.357z"/>
		<path fill="#FFFFFF" d="M154.48,26.918c-0.957,0-1.735-0.775-1.735-1.733c0-0.956,0.778-1.732,1.735-1.732l3.507-0.013
			c0.321,0,0.581,0.26,0.581,0.582c0,0.32-0.26,0.58-0.581,0.58h-3.507c-0.322,0-0.582,0.262-0.582,0.582
			c0,0.322,0.26,0.582,0.582,0.582l2.354,0.001c0.957,0,1.733,0.776,1.733,1.734c0,0.956-0.776,1.731-1.733,1.731l-3.507,0.014
			c-0.321,0-0.583-0.26-0.583-0.58c0-0.322,0.262-0.582,0.583-0.582h3.507c0.322,0,0.58-0.262,0.58-0.582
			c0-0.321-0.259-0.584-0.58-0.584H154.48z"/>
		<path fill="#FFFFFF" d="M172.614,28.094h-4.064v-4.072c0-0.322-0.261-0.582-0.582-0.582c-0.322,0-0.582,0.26-0.582,0.582
			l0.002,4.072v0.572l0,0c0,0.003,0,0.006,0,0.011c0,0.32,0.259,0.582,0.581,0.582h4.646c0.323,0,0.583-0.262,0.583-0.582
			C173.197,28.354,172.935,28.094,172.614,28.094z"/>
		<path fill="#FFFFFF" d="M190.461,24.021c0-0.322-0.262-0.582-0.581-0.582c-0.323,0-0.583,0.26-0.583,0.582v0.723v3.932
			c0,0.321,0.26,0.58,0.583,0.58c0.319,0,0.581-0.259,0.581-0.58V24.021z"/>
		<path fill="#FFFFFF" d="M204.51,23.439c-0.321,0-0.582,0.26-0.582,0.582v0.723c0,0,0,1.396,0,2.525
			c-0.722-0.717-3.704-3.689-3.717-3.697l0,0c-0.099-0.084-0.226-0.133-0.366-0.133c-0.32,0-0.581,0.26-0.581,0.582l0.001,0.723
			l-0.001,3.932c0,0.321,0.261,0.58,0.581,0.58c0.322,0,0.583-0.259,0.583-0.58v-3.252c0.795,0.797,3.671,3.664,3.671,3.664
			c0.019,0.019,0.042,0.037,0.063,0.052c0.099,0.073,0.217,0.119,0.349,0.119c0.32,0,0.582-0.262,0.582-0.582v-4.655
			C205.092,23.699,204.831,23.439,204.51,23.439z"/>
		<path fill="#FFFFFF" d="M187.23,23.439h-4.647c-0.321,0-0.583,0.26-0.583,0.582c0,0.32,0.262,0.581,0.583,0.581h1.741v4.073
			c0,0.321,0.261,0.583,0.582,0.583s0.584-0.262,0.584-0.583l-0.003-4.073h1.743c0.32,0,0.582-0.261,0.582-0.581
			C187.812,23.699,187.55,23.439,187.23,23.439z"/>
		<path fill="#FFFFFF" d="M165.865,25.132c-0.036-0.935-0.805-1.683-1.748-1.683h-2.295c-0.95,0-1.721,0.754-1.75,1.697h-0.002
			v0.035c0,0.006,0,0.013,0,0.019l0,0v0.739v1.578c0,0.968,0.783,1.752,1.752,1.752h2.295c0.967,0,1.752-0.784,1.752-1.752
			l0.018-2.386H165.865z M164.716,27.609c0,0.289-0.351,0.521-0.785,0.521h-1.928c-0.432,0-0.785-0.231-0.785-0.521v-2.502
			c0-0.287,0.354-0.521,0.785-0.521h1.928c0.435,0,0.785,0.233,0.785,0.521V27.609z"/>
		<path fill="#FFFFFF" d="M197.746,25.132c-0.037-0.935-0.803-1.683-1.748-1.683h-2.295c-0.952,0-1.721,0.754-1.75,1.697h-0.002
			v0.035c0,0.006-0.002,0.013-0.002,0.019h0.002l-0.002,0.739v1.578c0,0.968,0.787,1.752,1.754,1.752h2.295
			c0.971,0,1.752-0.784,1.752-1.752l0.018-2.386H197.746z M196.599,27.609c0,0.289-0.354,0.521-0.786,0.521h-1.925
			c-0.434,0-0.787-0.231-0.787-0.521v-2.502c0-0.287,0.354-0.521,0.787-0.521h1.925c0.433,0,0.786,0.233,0.786,0.521V27.609z"/>
		<path fill="#FFFFFF" d="M179.941,23.439c-0.322,0-0.583,0.26-0.583,0.582l-0.001,3.588c0,0.289-0.354,0.521-0.787,0.521h-1.926
			c-0.432,0-0.784-0.231-0.784-0.521v-3.588c0-0.322-0.259-0.582-0.583-0.582c-0.319,0-0.58,0.26-0.58,0.582l0.011,3.496
			c0,0.968,0.786,1.752,1.753,1.752h2.297c0.969,0,1.752-0.784,1.752-1.752l0.014-3.496
			C180.522,23.699,180.262,23.439,179.941,23.439z"/>
	</g>
	<g>
		<path fill="#FFFFFF" d="M58.542,15.157h-5.449l6.46-6.539c0.286-0.271,0.466-0.653,0.466-1.078c0-0.816-0.661-1.479-1.477-1.479
			h-9.083c-0.815,0-1.477,0.663-1.477,1.479s0.662,1.478,1.477,1.478h5.449l-6.46,6.54c-0.287,0.271-0.466,0.651-0.466,1.077
			c0,0.814,0.662,1.478,1.477,1.478h9.084c0.816,0,1.477-0.664,1.477-1.478C60.02,15.819,59.358,15.157,58.542,15.157z"/>
		<path fill="#FFFFFF" d="M129.75,6.07c-0.818,0-1.478,0.661-1.478,1.478v4.172v4.909c0,0.815,0.659,1.476,1.478,1.476
			c0.814,0,1.477-0.661,1.477-1.476v-3.833V7.548C131.226,6.731,130.564,6.07,129.75,6.07z"/>
		<path fill="#FFFFFF" d="M126.148,6.225c-0.729-0.362-1.617-0.064-1.979,0.667l-3.217,6.481l-3.215-6.481
			c-0.364-0.731-1.25-1.029-1.981-0.667s-1.03,1.25-0.667,1.98l4.5,9.053c0.253,0.51,0.76,0.803,1.292,0.815
			c0.024,0.002,0.051,0.002,0.074,0.003c0.024-0.001,0.05-0.001,0.075-0.003c0.533-0.013,1.039-0.305,1.291-0.815l4.494-9.053
			C127.179,7.474,126.88,6.587,126.148,6.225z"/>
		<path fill="#FFFFFF" d="M71.881,15.157h-6.327c-0.509-0.029-1.66-1.366-1.125-1.594l5.151,0.009c2.086,0,3.777-1.692,3.777-3.78
			c0-2.085-1.691-3.777-3.777-3.777h-3.722c-2.529,0-4.578,2.049-4.578,4.578v2.916c0,2.528,2.049,4.578,4.578,4.578l2.521,0.026
			h3.502c0.814,0,1.477-0.664,1.477-1.478C73.357,15.819,72.695,15.157,71.881,15.157z M65.111,9.02h4.465
			c0.434,0,0.787,0.351,0.787,0.785c0,0.435-0.353,0.787-0.787,0.787h-4.465c-0.435,0-0.787-0.352-0.787-0.787
			C64.324,9.371,64.676,9.02,65.111,9.02z"/>
		<path fill="#FFFFFF" d="M82.195,6.048h-2.848c-2.533,0-4.583,1.903-4.583,4.251v6.33c0,0.815,0.661,1.476,1.477,1.476
			c0.815,0,1.478-0.661,1.478-1.476l0.008-6.006c0-0.877,0.712-1.59,1.591-1.59h2.901c0.879,0,1.591,0.713,1.591,1.59l0.012,6.006
			c0,0.815,0.661,1.476,1.477,1.476c0.817,0,1.478-0.661,1.478-1.476v-6.33C86.777,7.951,84.726,6.048,82.195,6.048z"/>
		<path fill="#FFFFFF" d="M95.582,6.048h-2.847c-2.531,0-4.583,1.903-4.583,4.251v6.33c0,0.815,0.661,1.476,1.478,1.476
			c0.816,0,1.478-0.661,1.478-1.476l0.007-6.006c0-0.877,0.712-1.59,1.59-1.59h2.902c0.879,0,1.591,0.713,1.591,1.59l0.013,6.006
			c0,0.815,0.661,1.476,1.479,1.476c0.814,0,1.476-0.661,1.476-1.476v-6.33C100.165,7.951,98.113,6.048,95.582,6.048z"/>
		<path fill="#FFFFFF" d="M108.987,6.048h-2.847c-2.531,0-4.583,1.903-4.583,4.251v3.556c0,2.348,2.053,4.25,4.583,4.25h2.847
			c2.531,0,4.583-1.902,4.583-4.25v-3.556C113.57,7.951,111.518,6.048,108.987,6.048z M110.608,13.529
			c0,0.881-0.714,1.591-1.591,1.591h-2.901c-0.879,0-1.591-0.71-1.591-1.591l-0.003-2.905c0-0.877,0.711-1.59,1.589-1.59h2.902
			c0.878,0,1.59,0.713,1.59,1.59l0.013,2.566L110.608,13.529z"/>
		<path fill="#FFFFFF" d="M138.593,15.151c0.814,0,1.477,0.663,1.477,1.478c0,0.814-0.662,1.476-1.477,1.476h-1.426
			c-2.531,0-4.582-1.902-4.582-4.25v-3.556c0-2.349,2.051-4.251,4.582-4.251h2.85c2.529,0,4.582,1.903,4.582,4.251v6.33
			c0,0.815-0.664,1.476-1.479,1.476c-0.815,0-1.477-0.661-1.477-1.476l-0.014-6.006c0-0.877-0.712-1.59-1.59-1.59h-2.903
			c-0.876,0-1.591,0.713-1.591,1.59l0.006,2.905c0,0.881,0.713,1.591,1.592,1.591L138.593,15.151z"/>
	</g>
</g>
</svg>
