<?xml version="1.0" encoding="utf-8"?>
<!-- Generator: Adobe Illustrator 16.0.0, SVG Export Plug-In . SVG Version: 6.00 Build 0)  -->
<!DOCTYPE svg PUBLIC "-//W3C//DTD SVG 1.1//EN" "http://www.w3.org/Graphics/SVG/1.1/DTD/svg11.dtd">
<svg version="1.1" id="Capa_2" xmlns="http://www.w3.org/2000/svg" xmlns:xlink="http://www.w3.org/1999/xlink" x="0px" y="0px"
	 width="526.53px" height="302.041px" viewBox="0 0 526.53 302.041" enable-background="new 0 0 526.53 302.041"
	 xml:space="preserve">
<path fill="#4B3E8B" d="M494.679,175.837c-8.361-4.209-18.352-4.037-27.428-1.748c-5.795,1.462-11.49,3.752-17.467,3.791
	c-5.979,0.039-12.555-2.956-14.287-8.677c-1.822-6.016,2.328-12.226,7.09-16.331c9.68-8.347,22.625-12.517,31.418-21.795
	c8.459-8.929,12.021-22.238,9.15-34.199c-2.871-11.961-12.086-22.203-23.68-26.318c-29.543-10.487-61.73,18.103-91.941,9.726
	c-2.242-0.622-4.604-1.582-5.783-3.587c-1.154-1.958-0.889-4.441-0.229-6.615c3.703-12.165,18.076-19.909,18.705-32.609
	c0.344-6.904-3.736-13.363-8.883-17.98c-35.354-31.722-86.578,6.012-122.624,17.923C189.446,57.007,129.026,73.367,69.59,92.549
	c-22.208,7.167-47.929,18.329-52.044,41.298c-2.682,14.965,6.012,30.629,19.103,38.36c6.391,3.775,14.234,6.431,17.578,13.058
	c5.194,10.296-4.139,22.102-13.995,28.09c-9.855,5.988-21.877,10.737-26.365,21.36c-2.957,7.001-1.797,15.157,1.13,22.171
	c10.736,25.723,42.04,36.989,69.879,35.612c27.84-1.375,54.244-12.222,81.552-17.806c14.379-2.94,28.862-4.402,43.423-4.846
	c2.165-0.066,4.496-0.111,6.496-0.134V112.469h93v164.729c48,5.985,95.972,11.861,142.741,1.897
	c14.568-3.104,29.274-7.961,40.526-17.721c12.682-11.001,19.898-27.599,20.986-44.353
	C514.636,201.038,508.985,183.041,494.679,175.837z M187.347,224.695c0,0.856-0.759,1.774-1.616,1.774h-6.42
	c-0.571,0-0.964-0.063-0.964,0.508v11.842c0,0.856-0.462,1.65-1.318,1.65h-16.55c-0.856,0-1.132-0.794-1.132-1.65v-11.842
	c0-0.571-0.58-0.508-1.151-0.508h-37.808c-0.856,0-1.042-0.918-1.042-1.774v-14.552c0-0.571-0.193-1.141,0.093-1.712l29.008-63.939
	c0.428-0.856,0.902-1.022,1.901-1.022h18.119c0.999,0,1.276,0.451,0.991,1.307l-29.112,63.654v0.039h17.849
	c0.571,0,1.151,0.104,1.151-0.467V187.03c0-0.856,0.276-1.561,1.132-1.561h16.55c0.856,0,1.318,0.705,1.318,1.561v20.973
	c0,0.571,0.394,0.467,0.964,0.467h6.42c0.856,0,1.616,0.96,1.616,1.815V224.695z M366.636,244.136
	c-16.551,0-28.82-8.275-31.53-22.256c-0.143-0.856,0.285-1.57,1.142-1.855l15.693-2.996c0.856-0.143,1.427,0.286,1.712,1.141
	c1.713,5.136,5.85,9.131,12.698,9.131c7.418,0,11.984-5.068,11.984-12.345c0-8.702-5.279-13.486-13.555-13.486h-4.137
	c-0.856,0-1.297-0.991-1.297-1.847v-13.839c0-0.856,0.44-1.314,1.297-1.314h3.853c7.275,0,11.983-4.764,11.983-12.183
	c0-6.849-4.137-11.442-10.985-11.442c-6.135,0-9.559,3.553-10.985,8.974c-0.286,0.855-0.856,1.134-1.712,0.992l-15.552-3
	c-0.855-0.143-1.284-0.716-1.142-1.572c2.283-12.84,13.269-22.257,30.389-22.257c18.976,0,30.329,11.27,30.329,26.821
	c0,8.275-4.475,15.408-10.475,19.974v0.286c6,2.854,12.329,10.7,12.329,23.541C398.676,232.294,384.897,244.136,366.636,244.136z"/>
<path fill-rule="evenodd" clip-rule="evenodd" fill="#4B3E8B" d="M280.118,255.806c-7.756-1.022-14.512,1.683-15.086,6.042
	c-0.043,0.316-0.039,0.632-0.018,0.947c1.684-3.519,7.77-5.552,14.658-4.645c7.193,0.949,12.715,4.771,13.02,8.799
	c0.213-0.444,0.367-0.909,0.432-1.398C293.698,261.192,287.876,256.83,280.118,255.806z"/>
<circle fill-rule="evenodd" clip-rule="evenodd" fill="#70C9EB" cx="87.341" cy="148.216" r="4.094"/>
<circle fill-rule="evenodd" clip-rule="evenodd" fill="#70C9EB" cx="325.286" cy="34.255" r="1.836"/>
<circle fill-rule="evenodd" clip-rule="evenodd" fill="#70C9EB" cx="407.516" cy="119.005" r="1.836"/>
<circle fill-rule="evenodd" clip-rule="evenodd" fill="#70C9EB" cx="351.323" cy="68.323" r="1.837"/>
<circle fill-rule="evenodd" clip-rule="evenodd" fill="#70C9EB" cx="44.507" cy="128.111" r="1.836"/>
<circle fill-rule="evenodd" clip-rule="evenodd" fill="#FFFFFF" cx="304.817" cy="100.606" r="2.365"/>
<circle fill-rule="evenodd" clip-rule="evenodd" fill="#FFFFFF" cx="384.347" cy="255.59" r="2.365"/>
<circle fill-rule="evenodd" clip-rule="evenodd" fill="#FFFFFF" cx="473.947" cy="213.2" r="2.364"/>
<circle fill-rule="evenodd" clip-rule="evenodd" fill="#FFFFFF" cx="101.828" cy="247.69" r="2.365"/>
<circle fill-rule="evenodd" clip-rule="evenodd" fill="#FFFFFF" cx="238.363" cy="76.51" r="2.365"/>
<polygon fill-rule="evenodd" clip-rule="evenodd" fill="#FFFFFF" points="196.534,135.319 199.687,137.12 196.469,138.802 
	194.667,141.955 192.985,138.737 189.833,136.936 193.051,135.253 194.852,132.101 "/>
<polygon fill-rule="evenodd" clip-rule="evenodd" fill="#FFFFFF" points="273.606,45.319 276.76,47.121 273.542,48.803 
	271.74,51.956 270.058,48.738 266.905,46.937 270.124,45.254 271.925,42.102 "/>
<polygon fill-rule="evenodd" clip-rule="evenodd" fill="#FFFFFF" points="444.2,93.608 447.354,95.409 444.136,97.091 
	442.334,100.244 440.651,97.026 437.499,95.225 440.718,93.542 442.519,90.39 "/>
<polygon fill-rule="evenodd" clip-rule="evenodd" fill="#FFFFFF" points="360.556,100.799 362.612,101.976 360.513,103.074 
	359.337,105.132 358.237,103.032 356.181,101.855 358.28,100.757 359.458,98.699 "/>
<polygon fill-rule="evenodd" clip-rule="evenodd" fill="#FFFFFF" points="92.593,201.271 94.652,202.448 92.551,203.546 
	91.375,205.604 90.276,203.504 88.219,202.328 90.319,201.229 91.496,199.171 "/>
<polygon fill-rule="evenodd" clip-rule="evenodd" fill="#FFFFFF" points="118.794,115.643 120.853,116.819 118.752,117.917 
	117.576,119.975 116.478,117.875 114.419,116.698 116.521,115.601 117.696,113.542 "/>
<polygon fill-rule="evenodd" clip-rule="evenodd" fill="#FFFFFF" points="55.845,240.916 57.903,242.092 55.803,243.191 
	54.626,245.248 53.528,243.147 51.47,241.972 53.57,240.873 54.747,238.814 "/>
<polygon fill-rule="evenodd" clip-rule="evenodd" fill="#FFFFFF" points="429.806,182.832 431.864,184.009 429.765,185.106 
	428.589,187.165 427.489,185.064 425.431,183.888 427.532,182.79 428.708,180.731 "/>
<polygon fill-rule="evenodd" clip-rule="evenodd" fill="#FFFFFF" points="455.206,265.691 457.263,266.868 455.163,267.966 
	453.985,270.024 452.888,267.924 450.831,266.747 452.931,265.649 454.106,263.591 "/>
<rect x="231.019" y="126.481" fill="#B07D4F" width="63.789" height="53.397"/>
<rect x="231.019" y="126.481" opacity="0.3" fill="#B07D4F" width="63.789" height="2.599"/>
<circle fill="#D1996B" cx="293.87" cy="191.682" r="5.029"/>
<g>
	<path fill="#808080" d="M336.313,101.088h-10.494c-2.598,0-4.703-2.105-4.703-4.703v-9.776c0-2.597,2.105-4.703,4.703-4.703h10.494
		c2.598,0,4.703,2.105,4.703,4.703v9.776C341.017,98.983,338.911,101.088,336.313,101.088z"/>
	<g>
		<g>
			<path fill="#B0B0B0" d="M298.192,144.833c-1.428-0.879-1.873-2.754-0.992-4.18l8.465-13.735c0.879-1.426,2.756-1.871,4.182-0.992
				c1.426,0.879,1.871,2.754,0.99,4.181l-8.463,13.735C301.493,145.267,299.618,145.711,298.192,144.833 M295.882,148.578
				c3.498,2.157,8.08,1.068,10.236-2.429l8.465-13.735c2.158-3.497,1.07-8.08-2.428-10.236s-8.08-1.067-10.236,2.43l-8.465,13.735
				C291.298,141.84,292.386,146.423,295.882,148.578L295.882,148.578z"/>
		</g>
		<g>
			<path fill="#B0B0B0" d="M317.103,114.152c-1.426-0.879-1.871-2.755-0.992-4.181l8.467-13.735
				c0.879-1.427,2.754-1.872,4.182-0.993c1.426,0.879,1.869,2.755,0.99,4.181l-8.465,13.736
				C320.403,114.586,318.528,115.031,317.103,114.152 M314.794,117.897c3.496,2.156,8.08,1.068,10.236-2.429l8.465-13.735
				c2.156-3.498,1.068-8.08-2.43-10.236c-3.496-2.155-8.078-1.068-10.234,2.43l-8.469,13.734
				C310.208,111.159,311.296,115.742,314.794,117.897L314.794,117.897z"/>
		</g>
		<g>
			<path fill="#969696" d="M333.802,87.019c1.477,0.911,1.938,2.848,1.025,4.325l-5.264,8.581c-0.91,1.478-2.848,1.938-4.326,1.026
				c-1.477-0.911-1.938-2.847-1.025-4.325l5.264-8.581C330.388,86.568,332.323,86.108,333.802,87.019z"/>
		</g>
		<g>
			<path fill="#B0B0B0" d="M279.28,175.515c-1.426-0.88-1.871-2.755-0.992-4.182l8.465-13.734c0.879-1.427,2.756-1.872,4.182-0.992
				c1.426,0.878,1.871,2.754,0.99,4.18l-8.463,13.735C282.581,175.947,280.706,176.393,279.28,175.515 M276.97,179.26
				c3.5,2.155,8.08,1.068,10.236-2.429l8.465-13.736c2.158-3.496,1.07-8.079-2.426-10.235c-3.5-2.155-8.082-1.068-10.238,2.429
				l-8.465,13.736C272.386,172.521,273.474,177.104,276.97,179.26L276.97,179.26z"/>
		</g>
		<g>
			<path fill="#969696" d="M301.708,139.125c1.48,0.911,1.939,2.848,1.027,4.325l-10.994,17.838
				c-0.91,1.478-2.848,1.938-4.324,1.027c-1.479-0.911-1.938-2.847-1.027-4.325l10.996-17.838
				C298.296,138.673,300.233,138.214,301.708,139.125z"/>
		</g>
		<g>
			<path fill="#969696" d="M320.62,108.443c1.479,0.911,1.938,2.847,1.027,4.325l-10.994,17.838
				c-0.912,1.478-2.848,1.938-4.326,1.026c-1.477-0.911-1.936-2.848-1.025-4.325l10.994-17.838
				C317.206,107.992,319.142,107.532,320.62,108.443z"/>
		</g>
	</g>
</g>
<g>
	<path fill="#808080" d="M189.513,101.088h10.494c2.598,0,4.704-2.105,4.704-4.703v-9.776c0-2.597-2.106-4.703-4.704-4.703h-10.494
		c-2.598,0-4.703,2.105-4.703,4.703v9.776C184.81,98.983,186.915,101.088,189.513,101.088z"/>
	<g>
		<g>
			<path fill="#B0B0B0" d="M227.635,144.833c-1.426,0.879-3.302,0.435-4.182-0.992l-8.464-13.735
				c-0.88-1.427-0.436-3.301,0.991-4.181c1.426-0.879,3.302-0.434,4.181,0.992l8.466,13.735
				C229.506,142.078,229.061,143.954,227.635,144.833 M229.944,148.578c3.497-2.155,4.584-6.738,2.429-10.235l-8.466-13.735
				c-2.157-3.497-6.738-4.585-10.236-2.43s-4.585,6.739-2.429,10.236l8.466,13.735C221.863,149.646,226.446,150.735,229.944,148.578
				L229.944,148.578z"/>
		</g>
		<g>
			<path fill="#B0B0B0" d="M208.723,114.152c-1.426,0.879-3.301,0.434-4.181-0.992l-8.465-13.736
				c-0.879-1.426-0.434-3.301,0.992-4.181c1.427-0.879,3.302-0.434,4.181,0.993l8.466,13.735
				C210.595,111.397,210.15,113.273,208.723,114.152 M211.032,117.897c3.496-2.156,4.585-6.738,2.431-10.236l-8.468-13.734
				c-2.156-3.498-6.738-4.585-10.235-2.43c-3.497,2.156-4.585,6.738-2.429,10.236l8.466,13.735
				C202.952,118.966,207.536,120.053,211.032,117.897L211.032,117.897z"/>
		</g>
		<g>
			<path fill="#969696" d="M192.025,87.019c-1.478,0.911-1.938,2.848-1.026,4.325l5.264,8.581c0.911,1.478,2.847,1.938,4.326,1.026
				c1.477-0.911,1.936-2.847,1.026-4.325l-5.264-8.581C195.439,86.568,193.503,86.108,192.025,87.019z"/>
		</g>
		<g>
			<path fill="#B0B0B0" d="M246.546,175.515c-1.427,0.878-3.302,0.433-4.182-0.994l-8.467-13.735
				c-0.878-1.426-0.433-3.301,0.994-4.18c1.425-0.88,3.302-0.435,4.181,0.992l8.465,13.734
				C248.418,172.759,247.973,174.635,246.546,175.515 M248.856,179.26c3.497-2.156,4.584-6.739,2.429-10.236l-8.467-13.736
				c-2.155-3.497-6.737-4.584-10.236-2.429c-3.497,2.156-4.584,6.739-2.429,10.235l8.467,13.736
				C240.775,180.329,245.357,181.416,248.856,179.26L248.856,179.26z"/>
		</g>
		<g>
			<path fill="#969696" d="M224.117,139.125c-1.479,0.911-1.938,2.848-1.026,4.325l10.994,17.838
				c0.911,1.478,2.847,1.938,4.325,1.027s1.938-2.847,1.026-4.325l-10.995-17.838C227.53,138.673,225.594,138.214,224.117,139.125z"
				/>
		</g>
		<g>
			<path fill="#969696" d="M205.206,108.443c-1.479,0.911-1.937,2.847-1.026,4.325l10.994,17.838
				c0.912,1.478,2.848,1.938,4.324,1.026c1.479-0.911,1.938-2.848,1.027-4.325L209.53,109.47
				C208.618,107.992,206.682,107.532,205.206,108.443z"/>
		</g>
	</g>
</g>
<path fill="#808080" d="M332.069,245.477h-10.494c-2.598,0-4.703,2.105-4.703,4.702v9.777c0,2.597,2.105,4.702,4.703,4.702h10.494
	c2.6,0,4.705-2.105,4.705-4.702v-9.777C336.774,247.582,334.669,245.477,332.069,245.477z"/>
<g>
	<g>
		<path fill="#B0B0B0" d="M303.872,234.745c1.125-1.24,3.051-1.333,4.291-0.208l11.949,10.841c1.238,1.125,1.332,3.051,0.209,4.291
			c-1.127,1.241-3.053,1.335-4.291,0.209l-11.951-10.841C302.839,237.912,302.745,235.986,303.872,234.745 M300.612,231.789
			c-2.76,3.042-2.533,7.747,0.512,10.508l11.947,10.842c3.045,2.76,7.746,2.531,10.508-0.512c2.76-3.042,2.533-7.747-0.51-10.508
			l-11.949-10.841C308.077,228.517,303.372,228.745,300.612,231.789L300.612,231.789z"/>
	</g>
	<g>
		<path fill="#B0B0B0" d="M277.179,210.528c1.127-1.241,3.053-1.335,4.291-0.21l11.951,10.843c1.24,1.125,1.334,3.051,0.207,4.292
			c-1.125,1.241-3.051,1.335-4.291,0.208l-11.949-10.843C276.146,213.693,276.052,211.768,277.179,210.528 M273.919,207.57
			c-2.76,3.042-2.531,7.747,0.512,10.508l11.949,10.841c3.043,2.761,7.746,2.532,10.508-0.511c2.76-3.041,2.531-7.746-0.512-10.506
			l-11.947-10.843C281.386,204.3,276.681,204.528,273.919,207.57L273.919,207.57z"/>
	</g>
	<g>
		<path fill="#969696" d="M308.837,239.251c1.166-1.286,1.07-3.274-0.215-4.44l-15.52-14.081c-1.285-1.167-3.273-1.07-4.439,0.217
			c-1.166,1.284-1.07,3.272,0.217,4.439l15.518,14.081C305.683,240.633,307.671,240.537,308.837,239.251z"/>
	</g>
	<g>
		<path fill="#969696" d="M329.882,258.238c1.166-1.286,1.07-3.274-0.217-4.44l-9.871-8.85c-1.285-1.166-3.273-1.07-4.439,0.215
			s-1.07,3.274,0.217,4.44l9.869,8.85C326.728,259.62,328.714,259.525,329.882,258.238z"/>
	</g>
</g>
<path fill="#808080" d="M193.756,245.477h10.495c2.599,0,4.704,2.105,4.704,4.702v9.777c0,2.597-2.105,4.702-4.704,4.702h-10.495
	c-2.597,0-4.704-2.105-4.704-4.702v-9.777C189.052,247.582,191.159,245.477,193.756,245.477z"/>
<g>
	<g>
		<path fill="#B0B0B0" d="M221.955,234.745c1.127,1.242,1.033,3.167-0.209,4.292l-11.948,10.841
			c-1.24,1.126-3.166,1.032-4.292-0.209c-1.125-1.24-1.031-3.166,0.209-4.291l11.948-10.841
			C218.903,233.411,220.829,233.505,221.955,234.745 M225.215,231.789c-2.761-3.044-7.465-3.271-10.509-0.511l-11.948,10.841
			c-3.043,2.761-3.271,7.465-0.511,10.508c2.761,3.042,7.464,3.271,10.508,0.512l11.949-10.842
			C227.747,239.536,227.974,234.831,225.215,231.789L225.215,231.789z"/>
	</g>
	<g>
		<path fill="#B0B0B0" d="M248.646,210.528c1.126,1.24,1.034,3.166-0.209,4.29l-11.948,10.843c-1.24,1.127-3.167,1.033-4.292-0.208
			c-1.127-1.242-1.032-3.167,0.208-4.292l11.95-10.843C245.596,209.193,247.521,209.287,248.646,210.528 M251.906,207.57
			c-2.76-3.042-7.465-3.271-10.508-0.511l-11.949,10.843c-3.042,2.761-3.271,7.465-0.512,10.506
			c2.761,3.042,7.465,3.271,10.509,0.511l11.95-10.841C254.439,215.317,254.667,210.613,251.906,207.57L251.906,207.57z"/>
	</g>
	<g>
		<path fill="#969696" d="M216.989,239.251c-1.167-1.286-1.071-3.274,0.215-4.44l15.52-14.081c1.285-1.167,3.273-1.07,4.439,0.217
			c1.167,1.284,1.069,3.272-0.216,4.439l-15.518,14.081C220.144,240.633,218.155,240.537,216.989,239.251z"/>
	</g>
	<g>
		<path fill="#969696" d="M195.944,258.238c-1.167-1.286-1.07-3.274,0.216-4.44l9.872-8.85c1.284-1.166,3.272-1.07,4.439,0.215
			c1.166,1.286,1.07,3.274-0.217,4.44l-9.871,8.85C199.098,259.62,197.111,259.525,195.944,258.238z"/>
	</g>
</g>
<g>
	<circle fill="#4B3E8B" cx="261.292" cy="197.479" r="27.184"/>
	<circle fill="#53C3FF" cx="261.292" cy="192.49" r="27.184"/>
	<path fill="#F1EEF0" d="M266.058,194.457c3.609-1.667,6.119-5.309,6.119-9.546c0-5.811-4.711-10.521-10.521-10.521
		c-5.81,0-10.521,4.71-10.521,10.521c0,4.238,2.51,7.879,6.12,9.546l-5.398,11.399c-1.216,2.57,0.658,5.53,3.501,5.53h12.598
		c2.846,0,4.717-2.96,3.5-5.53L266.058,194.457z"/>
	<g>
		<path fill="#4B3E8B" d="M261.655,176.845c5.395,0,9.836,4.061,10.443,9.291c0.049-0.402,0.078-0.81,0.078-1.226
			c0-5.811-4.711-10.521-10.521-10.521c-5.81,0-10.521,4.71-10.521,10.521c0,0.416,0.031,0.824,0.078,1.226
			C251.821,180.906,256.262,176.845,261.655,176.845z"/>
		<path fill="#4B3E8B" d="M257.254,196.914v-2.457l-5.398,11.399c-0.458,0.968-0.478,1.99-0.171,2.891
			c0.049-0.146,0.104-0.292,0.171-0.436L257.254,196.914z"/>
		<path fill="#4B3E8B" d="M266.058,194.457v2.457l5.396,11.397c0.068,0.144,0.123,0.289,0.174,0.436
			c0.305-0.901,0.285-1.923-0.174-2.891L266.058,194.457z"/>
	</g>
</g>
<g>
	<defs>
		<path id="SVGID_1_" d="M69.751,92.549c-22.208,7.167-47.929,18.329-52.044,41.298c-2.681,14.965,6.012,30.629,19.103,38.36
			c6.391,3.775,14.234,6.431,17.578,13.058c5.194,10.296-4.139,22.102-13.995,28.09c-9.855,5.988-21.877,10.737-26.365,21.36
			c-2.957,7.001-1.797,15.157,1.13,22.171c10.736,25.723,42.04,36.989,69.879,35.612c27.84-1.375,54.244-12.222,81.552-17.806
			c93.779-19.175,192.103,24.348,285.724,4.403c14.566-3.104,29.24-7.961,40.492-17.721c12.682-11.001,19.885-27.599,20.969-44.353
			c1.039-15.984-4.627-33.981-18.934-41.184c-8.361-4.209-18.354-4.037-27.428-1.748c-5.797,1.462-11.492,3.752-17.471,3.791
			c-5.977,0.039-12.553-2.956-14.285-8.677c-1.82-6.016,2.33-12.226,7.09-16.331c9.682-8.347,22.627-12.517,31.418-21.795
			c8.463-8.929,12.021-22.238,9.15-34.199c-2.871-11.961-12.086-22.203-23.678-26.318c-29.543-10.487-61.732,18.103-91.943,9.726
			c-2.242-0.622-4.602-1.582-5.783-3.587c-1.152-1.958-0.889-4.441-0.227-6.615c3.701-12.165,18.076-19.909,18.705-32.609
			c0.344-6.904-3.74-13.363-8.885-17.98c-35.352-31.722-86.578,6.012-122.622,17.923C189.607,57.007,129.188,73.367,69.751,92.549z"
			/>
	</defs>
	<clipPath id="SVGID_2_">
		<use xlink:href="#SVGID_1_"  overflow="visible"/>
	</clipPath>
	<g clip-path="url(#SVGID_2_)">
		<rect x="216.514" y="112.651" fill="#804B1B" width="93.12" height="174.931"/>
		<rect x="231.18" y="126.481" fill="#B07D4F" width="63.788" height="53.397"/>
		<rect x="231.18" y="126.481" opacity="0.3" fill="#B07D4F" width="63.788" height="2.599"/>
		<rect x="231.18" y="204.012" fill="#B07D4F" width="63.788" height="72.255"/>
		<rect x="210.745" y="107.375" fill="#D1996B" width="103.932" height="9.214"/>
		<polygon fill="#B07D4F" points="220.818,287.582 210.745,287.582 210.745,107.375 220.818,116.589 		"/>
		<polygon fill="#966233" points="304.601,287.582 314.669,287.582 314.669,107.375 304.601,116.589 		"/>
		<circle fill="#D1996B" cx="294.031" cy="191.682" r="5.028"/>
		<g>
			<path fill="#808080" d="M336.474,101.088h-10.494c-2.598,0-4.701-2.105-4.701-4.703v-9.776c0-2.597,2.104-4.703,4.701-4.703
				h10.494c2.6,0,4.703,2.105,4.703,4.703v9.776C341.177,98.983,339.073,101.088,336.474,101.088z"/>
			<g>
				<g>
					<path fill="#B0B0B0" d="M298.353,144.833c-1.428-0.879-1.869-2.754-0.992-4.18l8.467-13.735
						c0.877-1.426,2.754-1.871,4.18-0.992c1.426,0.879,1.871,2.754,0.992,4.181l-8.467,13.735
						C301.655,145.267,299.778,145.711,298.353,144.833 M296.044,148.578c3.498,2.157,8.078,1.068,10.236-2.429l8.465-13.735
						c2.154-3.497,1.068-8.08-2.43-10.236c-3.496-2.156-8.08-1.067-10.234,2.43l-8.467,13.735
						C291.458,141.84,292.546,146.423,296.044,148.578L296.044,148.578z"/>
				</g>
				<g>
					<path fill="#B0B0B0" d="M317.263,114.152c-1.426-0.879-1.871-2.755-0.992-4.181l8.467-13.735
						c0.879-1.427,2.754-1.872,4.182-0.993c1.426,0.879,1.871,2.755,0.992,4.181l-8.467,13.736
						C320.567,114.586,318.688,115.031,317.263,114.152 M314.956,117.897c3.494,2.156,8.078,1.068,10.234-2.429l8.467-13.735
						c2.154-3.498,1.068-8.08-2.43-10.236c-3.498-2.155-8.08-1.068-10.234,2.43l-8.467,13.734
						C310.37,111.159,311.458,115.742,314.956,117.897L314.956,117.897z"/>
				</g>
				<g>
					<path fill="#969696" d="M333.962,87.019c1.479,0.911,1.938,2.848,1.025,4.325l-5.262,8.581
						c-0.912,1.478-2.848,1.938-4.326,1.026c-1.477-0.911-1.938-2.847-1.025-4.325l5.262-8.581
						C330.548,86.568,332.483,86.108,333.962,87.019z"/>
				</g>
				<g>
					<path fill="#B0B0B0" d="M279.44,175.515c-1.426-0.88-1.869-2.755-0.992-4.182l8.467-13.734c0.879-1.427,2.754-1.872,4.18-0.992
						c1.428,0.878,1.871,2.754,0.994,4.18l-8.467,13.735C282.743,175.947,280.866,176.393,279.44,175.515 M277.132,179.26
						c3.498,2.155,8.08,1.068,10.236-2.429l8.465-13.736c2.156-3.496,1.068-8.079-2.428-10.235
						c-3.498-2.155-8.082-1.068-10.236,2.429l-8.467,13.736C272.548,172.521,273.636,177.104,277.132,179.26L277.132,179.26z"/>
				</g>
				<g>
					<path fill="#969696" d="M301.87,139.125c1.479,0.911,1.938,2.848,1.027,4.325l-10.996,17.838
						c-0.91,1.478-2.848,1.938-4.324,1.027c-1.479-0.911-1.936-2.847-1.025-4.325l10.994-17.838
						C298.458,138.673,300.394,138.214,301.87,139.125z"/>
				</g>
				<g>
					<path fill="#969696" d="M320.782,108.443c1.477,0.911,1.938,2.847,1.025,4.325l-10.994,17.838
						c-0.91,1.478-2.848,1.938-4.326,1.026c-1.477-0.911-1.936-2.848-1.025-4.325l10.996-17.838
						C317.368,107.992,319.304,107.532,320.782,108.443z"/>
				</g>
			</g>
		</g>
		<g>
			<path fill="#808080" d="M189.674,101.088h10.494c2.598,0,4.703-2.105,4.703-4.703v-9.776c0-2.597-2.104-4.703-4.703-4.703
				h-10.494c-2.598,0-4.703,2.105-4.703,4.703v9.776C184.971,98.983,187.076,101.088,189.674,101.088z"/>
			<g>
				<g>
					<path fill="#B0B0B0" d="M227.796,144.833c-1.426,0.879-3.302,0.435-4.181-0.992l-8.465-13.735
						c-0.88-1.427-0.435-3.301,0.991-4.181c1.426-0.879,3.302-0.434,4.181,0.992l8.466,13.735
						C229.666,142.078,229.223,143.954,227.796,144.833 M230.105,148.578c3.498-2.155,4.585-6.738,2.429-10.235l-8.466-13.735
						c-2.155-3.497-6.738-4.585-10.236-2.43c-3.497,2.156-4.584,6.739-2.429,10.236l8.466,13.735
						C222.026,149.646,226.607,150.735,230.105,148.578L230.105,148.578z"/>
				</g>
				<g>
					<path fill="#B0B0B0" d="M208.884,114.152c-1.424,0.879-3.302,0.434-4.18-0.992l-8.466-13.736
						c-0.879-1.426-0.434-3.301,0.992-4.181c1.427-0.879,3.302-0.434,4.181,0.993l8.467,13.735
						C210.756,111.397,210.311,113.273,208.884,114.152 M211.193,117.897c3.498-2.156,4.585-6.738,2.43-10.236l-8.467-13.734
						c-2.156-3.498-6.738-4.585-10.235-2.43c-3.497,2.156-4.585,6.738-2.429,10.236l8.466,13.735
						C203.114,118.966,207.698,120.053,211.193,117.897L211.193,117.897z"/>
				</g>
				<g>
					<path fill="#969696" d="M192.186,87.019c-1.478,0.911-1.937,2.848-1.026,4.325l5.264,8.581c0.91,1.478,2.847,1.938,4.326,1.026
						c1.476-0.911,1.935-2.847,1.026-4.325l-5.264-8.581C195.601,86.568,193.664,86.108,192.186,87.019z"/>
				</g>
				<g>
					<path fill="#B0B0B0" d="M246.708,175.515c-1.427,0.878-3.302,0.433-4.181-0.994l-8.467-13.735
						c-0.88-1.426-0.435-3.301,0.993-4.18c1.426-0.88,3.301-0.435,4.181,0.992l8.465,13.734
						C248.578,172.759,248.134,174.635,246.708,175.515 M249.016,179.26c3.498-2.156,4.585-6.739,2.43-10.236l-8.466-13.736
						c-2.155-3.497-6.738-4.584-10.236-2.429c-3.497,2.156-4.585,6.739-2.431,10.235l8.468,13.736
						C240.937,180.329,245.52,181.416,249.016,179.26L249.016,179.26z"/>
				</g>
				<g>
					<path fill="#969696" d="M224.278,139.125c-1.479,0.911-1.938,2.848-1.027,4.325l10.995,17.838
						c0.912,1.478,2.848,1.938,4.325,1.027c1.479-0.911,1.937-2.847,1.026-4.325l-10.994-17.838
						C227.691,138.673,225.755,138.214,224.278,139.125z"/>
				</g>
				<g>
					<path fill="#969696" d="M205.367,108.443c-1.478,0.911-1.938,2.847-1.027,4.325l10.996,17.838
						c0.911,1.478,2.847,1.938,4.323,1.026c1.479-0.911,1.938-2.848,1.026-4.325l-10.994-17.838
						C208.781,107.992,206.844,107.532,205.367,108.443z"/>
				</g>
			</g>
		</g>
		<path fill="#808080" d="M332.231,245.477h-10.494c-2.598,0-4.703,2.105-4.703,4.702v9.777c0,2.597,2.105,4.702,4.703,4.702h10.494
			c2.596,0,4.703-2.105,4.703-4.702v-9.777C336.935,247.582,334.827,245.477,332.231,245.477z"/>
		<g>
			<g>
				<path fill="#B0B0B0" d="M304.032,234.745c1.127-1.24,3.051-1.333,4.291-0.208l11.951,10.841c1.24,1.125,1.332,3.051,0.207,4.291
					c-1.125,1.241-3.053,1.335-4.293,0.209l-11.947-10.841C303.001,237.912,302.907,235.986,304.032,234.745 M300.772,231.789
					c-2.76,3.042-2.531,7.747,0.51,10.508l11.951,10.842c3.041,2.76,7.746,2.531,10.508-0.512c2.76-3.042,2.531-7.747-0.512-10.508
					l-11.947-10.841C308.237,228.517,303.534,228.745,300.772,231.789L300.772,231.789z"/>
			</g>
			<g>
				<path fill="#B0B0B0" d="M277.341,210.528c1.125-1.241,3.051-1.335,4.291-0.21l11.949,10.843c1.24,1.125,1.334,3.051,0.209,4.292
					c-1.127,1.241-3.051,1.335-4.291,0.208l-11.951-10.843C276.308,213.693,276.216,211.768,277.341,210.528 M274.081,207.57
					c-2.76,3.042-2.531,7.747,0.51,10.508l11.951,10.841c3.041,2.761,7.746,2.532,10.506-0.511c2.762-3.041,2.533-7.746-0.51-10.506
					l-11.949-10.843C281.548,204.3,276.843,204.528,274.081,207.57L274.081,207.57z"/>
			</g>
			<g>
				<path fill="#969696" d="M308.997,239.251c1.166-1.286,1.07-3.274-0.215-4.44l-15.518-14.081
					c-1.287-1.167-3.273-1.07-4.441,0.217c-1.166,1.284-1.068,3.272,0.217,4.439l15.518,14.081
					C305.845,240.633,307.831,240.537,308.997,239.251z"/>
			</g>
			<g>
				<path fill="#969696" d="M330.042,258.238c1.168-1.286,1.07-3.274-0.215-4.44l-9.871-8.85c-1.287-1.166-3.275-1.07-4.439,0.215
					c-1.166,1.286-1.07,3.274,0.215,4.44l9.871,8.85C326.888,259.62,328.876,259.525,330.042,258.238z"/>
			</g>
		</g>
		<path fill="#808080" d="M193.917,245.477h10.494c2.598,0,4.705,2.105,4.705,4.702v9.777c0,2.597-2.106,4.702-4.705,4.702h-10.494
			c-2.597,0-4.704-2.105-4.704-4.702v-9.777C189.213,247.582,191.32,245.477,193.917,245.477z"/>
		<g>
			<g>
				<path fill="#B0B0B0" d="M222.116,234.745c1.125,1.242,1.032,3.167-0.208,4.292l-11.949,10.841
					c-1.24,1.126-3.167,1.032-4.291-0.209c-1.127-1.24-1.034-3.166,0.207-4.291l11.95-10.841
					C219.064,233.411,220.99,233.505,222.116,234.745 M225.376,231.789c-2.762-3.044-7.465-3.271-10.509-0.511l-11.948,10.841
					c-3.042,2.761-3.271,7.465-0.511,10.508c2.761,3.042,7.465,3.271,10.507,0.512l11.951-10.842
					C227.908,239.536,228.135,234.831,225.376,231.789L225.376,231.789z"/>
			</g>
			<g>
				<path fill="#B0B0B0" d="M248.808,210.528c1.125,1.24,1.032,3.166-0.208,4.29l-11.95,10.843
					c-1.242,1.127-3.166,1.033-4.292-0.208c-1.125-1.242-1.031-3.167,0.209-4.292l11.95-10.843
					C245.757,209.193,247.682,209.287,248.808,210.528 M252.067,207.57c-2.761-3.042-7.465-3.271-10.508-0.511l-11.949,10.843
					c-3.042,2.761-3.271,7.465-0.51,10.506c2.759,3.042,7.465,3.271,10.506,0.511l11.951-10.841
					C254.599,215.317,254.828,210.613,252.067,207.57L252.067,207.57z"/>
			</g>
			<g>
				<path fill="#969696" d="M217.151,239.251c-1.169-1.286-1.07-3.274,0.214-4.44l15.519-14.081c1.286-1.167,3.274-1.07,4.44,0.217
					c1.167,1.284,1.069,3.272-0.215,4.439l-15.519,14.081C220.305,240.633,218.318,240.537,217.151,239.251z"/>
			</g>
			<g>
				<path fill="#969696" d="M196.105,258.238c-1.167-1.286-1.07-3.274,0.216-4.44l9.871-8.85c1.287-1.166,3.274-1.07,4.44,0.215
					c1.167,1.286,1.069,3.274-0.215,4.44l-9.872,8.85C199.259,259.62,197.272,259.525,196.105,258.238z"/>
			</g>
		</g>
		<g>
			<circle fill="#B0B0B0" cx="261.454" cy="197.479" r="27.184"/>
			<circle fill="#C9C9C9" cx="261.454" cy="192.49" r="27.184"/>
			<path fill="#303030" d="M266.22,194.457c3.609-1.667,6.119-5.309,6.119-9.546c0-5.811-4.711-10.521-10.523-10.521
				c-5.809,0-10.52,4.71-10.52,10.521c0,4.238,2.509,7.879,6.118,9.546l-5.396,11.399c-1.218,2.57,0.657,5.53,3.5,5.53h12.598
				c2.844,0,4.717-2.96,3.5-5.53L266.22,194.457z"/>
			<g>
				<path fill="#131313" d="M261.815,176.845c5.396,0,9.836,4.061,10.443,9.291c0.049-0.402,0.08-0.81,0.08-1.226
					c0-5.811-4.711-10.521-10.523-10.521c-5.809,0-10.52,4.71-10.52,10.521c0,0.416,0.031,0.824,0.078,1.226
					C251.983,180.906,256.422,176.845,261.815,176.845z"/>
				<path fill="#131313" d="M257.414,196.914v-2.457l-5.396,11.399c-0.458,0.968-0.477,1.99-0.172,2.891
					c0.049-0.146,0.104-0.292,0.172-0.436L257.414,196.914z"/>
				<path fill="#131313" d="M266.22,194.457v2.457l5.396,11.397c0.068,0.144,0.123,0.289,0.172,0.436
					c0.305-0.901,0.285-1.923-0.172-2.891L266.22,194.457z"/>
			</g>
		</g>
	</g>
</g>
</svg>
