<?xml version="1.0" encoding="utf-8"?>
<!-- Generator: Adobe Illustrator 22.1.0, SVG Export Plug-In . SVG Version: 6.00 Build 0)  -->
<svg version="1.1" id="Capa_1" xmlns="http://www.w3.org/2000/svg" xmlns:xlink="http://www.w3.org/1999/xlink" x="0px" y="0px"
	 viewBox="0 0 526.5 302" style="enable-background:new 0 0 526.5 302;" xml:space="preserve">
<style type="text/css">
	.st0{fill:#4B3E8B;}
	.st1{fill:#70C9EB;}
	.st2{fill:#A1C3FF;}
	.st3{fill:#64A1F4;}
	.st4{fill:#448DE8;}
	.st5{fill:#FFFFFF;}
	.st6{fill:#7191FF;}
	.st7{fill:#53C3FF;}
	.st8{fill:#B07EFF;}
	.st9{fill:#D2BBFF;}
</style>
<path class="st0" d="M494.1,175.3c-8.3-4.2-18.3-4-27.4-1.7c-5.8,1.5-11.5,3.7-17.4,3.8c-6,0-12.5-2.9-14.2-8.7
	c-1.8-6,2.3-12.2,7.1-16.3c9.7-8.3,22.6-12.5,31.3-21.7c8.4-8.9,12-22.2,9.1-34.1c-2.9-11.9-12.1-22.1-23.6-26.2
	c-29.5-10.5-61.6,18.1-91.7,9.7c-2.2-0.6-4.6-1.6-5.8-3.6c-1.1-2-0.9-4.4-0.2-6.6c3.7-12.1,18-19.9,18.7-32.5
	c0.3-6.9-3.7-13.3-8.9-17.9c-35.3-31.6-86.3,6-122.3,17.9c-59.1,19.5-119.4,35.9-178.6,55c-22.1,7.1-47.8,18.3-51.9,41.2
	c-2.7,14.9,6,30.5,19.1,38.3c6.4,3.8,14.2,6.4,17.5,13c5.2,10.3-4.1,22-14,28c-9.8,6-21.8,10.7-26.3,21.3c-2.9,7-1.8,15.1,1.1,22.1
	c10.7,25.7,41.9,36.9,69.7,35.5c23.1-1.1,45.2-8.8,67.6-14.6c0.6-1.8,1.3-3.6,2-5.5l-0.7-0.2c-2.4-1.3-3.3-4.3-2.1-6.7l11.8-22.4
	c1.3-2.4,4.3-3.4,6.7-2.1l1.9,1c6.8-8.7,14.8-16.5,23.7-23.1c0-1.6,0.7-3.1,2.1-4.1l2-1.5c-0.3-0.1-0.5-0.3-0.6-0.6l-5.8-9.8
	c-0.3-0.5-0.7-0.6-1.1-0.3l-31.3,18.5c-0.7,0.4-1.5,0.2-1.9-0.5l-7.1-12.1c-0.3-0.5-0.6-0.9-0.6-1.6l-7.3-67.3
	c-0.1-0.9,0.3-1.4,1.1-1.9l15-8.9c0.8-0.5,1.3-0.2,1.5,0.7l7.1,67.1l0.2,0.4l14.8-8.7c0.5-0.3,0.6-0.7,0.3-1.1L174.5,169
	c-0.4-0.7-0.2-1.5,0.5-1.9l13.7-8.1c0.7-0.4,1.5-0.2,1.9,0.5l10.3,17.4c0.3,0.5,0.7,0.6,1.1,0.3l5.3-3.1c0.7-0.4,1.5-0.2,1.9,0.5
	l7.1,11.9c0.4,0.7,0.2,1.5-0.5,1.9l-5.3,3.1c-0.5,0.3-0.6,0.7-0.3,1.1l5.4,9.1l3.5-2.5c2.2-1.6,5.3-1.1,6.9,1.1l0.8,1.1
	c13.6-5.1,28.3-8,43.7-8c21,0,40.7,5.3,58,14.5c1.7-1,3.8-0.9,5.5,0.3l5.2,3.9l2.2-3.5c0.3-0.5,0.2-0.8-0.3-1.1l-31-19
	c-0.7-0.4-0.9-1.2-0.5-1.9l7.3-11.9c0.3-0.5,0.6-0.9,1.1-1.3l56.1-37.9c0.8-0.5,1.4-0.4,2.2,0.1l14.9,9.1c0.8,0.5,0.8,1.1,0.1,1.7
	l-56,37.6l-0.2,0.4l14.6,9c0.5,0.3,0.8,0.2,1.1-0.3l10.6-17.2c0.4-0.7,1.2-0.9,1.9-0.5l13.6,8.3c0.7,0.4,0.9,1.2,0.5,1.9l-10.6,17.2
	c-0.3,0.5-0.2,0.8,0.3,1.1l5.3,3.2c0.7,0.4,0.9,1.2,0.5,1.9l-7.3,11.8c-0.4,0.7-1.2,0.9-1.9,0.4l-5.3-3.2c-0.5-0.3-0.8-0.2-1.1,0.3
	l-3.1,5.1l0,0c1.4,1.1,2.1,2.7,1.9,4.4c6.3,6,12,12.8,17,20l2.8-1.1c2.5-1,5.4,0.2,6.4,2.8l6.1,15.3c1,2.5-0.2,5.4-2.8,6.4l-0.1,0
	c1.6,4,3,8.1,4.2,12.3c20.8,0.4,41.5-0.9,62-5.3c14.5-3.1,29.2-7.9,40.4-17.7c12.6-11,19.8-27.5,20.9-44.2
	C514,200.4,508.4,182.5,494.1,175.3z"/>
<ellipse transform="matrix(0.1307 -0.9914 0.9914 0.1307 -18.0461 505.2362)" class="st1" cx="279.1" cy="262.9" rx="7.9" ry="14.1"/>
<g>
	<circle class="st2" cx="179.9" cy="92.2" r="16"/>
	<path class="st3" d="M179.9,76.2c-2.8,0-5.5,0.8-7.8,2.1c0.1,0.2,0.2,0.4,0.4,0.5c1.6,1.6,5.5,1.7,7.6,1.8c3.1,0.2,6.3-0.3,9.3-1.2
		C186.7,77.4,183.4,76.2,179.9,76.2z"/>
	<path class="st3" d="M192.1,84.8c0.5-0.2,1.1-0.4,1.5-0.7c-0.4-0.7-0.9-1.4-1.4-2c-1.6,0.7-3.2,1.4-4.8,2.1
		c-1.2,0.6-2.5,1.1-3.8,1.5c-1.9,0.5-4,0.5-6,0.5c-4.2,0-8.2-0.4-12.3-0.9c-1,2.1-1.6,4.4-1.6,6.9c0,1.2,0.1,2.3,0.4,3.4
		c0.8-0.3,1.6-0.9,2.4-1.4c2-1.3,4.4-2.1,6.6-2.9C179.5,89.2,185.8,87,192.1,84.8z"/>
	<path class="st3" d="M194.6,85.9c-1.2,1.1-2.2,2.6-3.5,3.6c-1.4,1.1-3,2-4.7,2.7c-1.2,0.5-2.4,0.8-3.6,1.4c-0.4,0.2-0.9,0.5-1,1
		c-0.2,0.8,0.8,1.4,1.6,1.6c1.6,0.4,3.3,0.3,5,0.2c2-0.1,3.9-0.2,5.9-0.3c0.4,0,0.7,0,1.1-0.1c0.3-1.2,0.5-2.5,0.5-3.9
		C195.9,90,195.4,87.9,194.6,85.9z"/>
	<path class="st3" d="M180.3,91.8c-2.9,0.6-5.6,1.5-8.3,2.7c-1.8,0.8-3.5,1.8-5.3,2.3c-0.5,0.2-1.3,0.2-2.1,0.3
		c0.9,3,2.7,5.6,5.1,7.5c0.2-0.2,0.3-0.4,0.5-0.6c2.4-3.2,4-7.2,7.5-9.2c0.6-0.4,1.3-0.6,1.9-1.1C180.1,93.3,180.5,92.5,180.3,91.8z
		"/>
	<path class="st3" d="M194.3,99.1c-0.2,0-0.4,0-0.5,0c-3.4,0.2-6.8,0.4-10.3,0.6c-2.1,0.1-4.4,0.3-6.1,1.5c-1.4,0.9-2.3,2.4-3.1,3.8
		c-0.3,0.5-0.8,1.1-1.3,1.8c2,0.9,4.2,1.5,6.5,1.6c0.4-0.5,0.8-1.1,1.2-1.6c2.3-3,5.9-5.1,9.6-5.5c1-0.1,2-0.1,3-0.2
		C193.7,100.4,194,99.7,194.3,99.1z"/>
	<path class="st4" d="M194.6,98.6c0.4-0.9,0.7-1.9,1-3c-4.1,1.5-9,2.8-14.2,3.8c-5.3,1-10.3,1.6-14.7,1.8c0.6,0.9,1.3,1.7,2,2.4
		c4.1-0.3,8.6-0.8,13.2-1.7C186.4,101,190.7,99.9,194.6,98.6z"/>
	<g>
		<path class="st5" d="M164.2,102.5c-5.7,0-10.4-0.9-11-3.7c-0.5-2.6,2.9-5.3,10.1-8c0.6-0.2,1.4,0.1,1.6,0.7
			c0.2,0.6-0.1,1.4-0.7,1.6c-7.3,2.8-8.6,4.8-8.5,5.2c0.3,1.4,9.3,3,25.7-0.2c6.9-1.3,13.2-3.2,17.8-5.2c5.3-2.3,6.1-3.9,6.1-4.2
			c-0.1-0.4-2.1-1.9-10.4-1.6c-0.7,0-1.3-0.5-1.3-1.2c0-0.7,0.5-1.3,1.2-1.3c8-0.2,12.4,1,12.9,3.7c0.4,2.3-2,4.6-7.5,7
			c-4.8,2.1-11.3,4-18.3,5.4C177,101.5,170,102.5,164.2,102.5z"/>
	</g>
</g>
<g>
	<circle class="st6" cx="427.8" cy="122.1" r="12.9"/>
	<path class="st7" d="M433.9,110.7c-2-1.1-4.2-1.6-6.3-1.5c0,0.2,0,0.4,0.1,0.5c0.5,1.8,3.2,3.3,4.7,4.2c2.2,1.3,4.6,2.2,7.1,2.7
		C438.3,114.2,436.4,112.1,433.9,110.7z"/>
	<path class="st7" d="M439.3,121.5c0.4,0.1,0.9,0.1,1.3,0.1c0-0.7-0.1-1.3-0.2-2c-1.4-0.1-2.8-0.2-4.2-0.3c-1.1-0.1-2.2-0.2-3.3-0.4
		c-1.6-0.4-3-1.1-4.4-1.9c-2.9-1.6-5.7-3.5-8.4-5.3c-1.5,1.1-2.8,2.5-3.7,4.3c-0.4,0.8-0.8,1.7-1,2.5c0.7,0.1,1.5,0,2.2-0.1
		c1.9-0.1,3.9,0.2,5.8,0.5C428.7,119.8,434,120.6,439.3,121.5z"/>
	<path class="st7" d="M440.6,123.3c-1.3,0.3-2.5,1-3.9,1.2c-1.4,0.2-2.9,0.3-4.4,0.1c-1-0.1-2-0.4-3.1-0.4c-0.4,0-0.8,0-1.1,0.3
		c-0.4,0.5,0,1.3,0.5,1.7c1,0.9,2.2,1.5,3.4,2.1c1.4,0.7,2.9,1.4,4.3,2.1c0.3,0.1,0.5,0.2,0.8,0.3c0.7-0.8,1.3-1.6,1.8-2.5
		C440,126.6,440.5,125,440.6,123.3z"/>
	<path class="st7" d="M428.2,121.9c-2.2-0.7-4.6-1.1-6.9-1.3c-1.6-0.1-3.1-0.1-4.7-0.4c-0.4-0.1-1-0.3-1.6-0.6
		c-0.5,2.5-0.2,5,0.7,7.3c0.2-0.1,0.4-0.2,0.6-0.2c2.9-1.3,5.6-3.6,8.8-3.6c0.6,0,1.2,0,1.7-0.1S428.1,122.5,428.2,121.9z"/>
	<path class="st7" d="M435.4,132.5c-0.1-0.1-0.2-0.2-0.4-0.2c-2.5-1.2-5-2.4-7.5-3.5c-1.5-0.7-3.2-1.5-4.9-1.3
		c-1.3,0.1-2.5,0.8-3.7,1.5c-0.4,0.2-1,0.5-1.6,0.8c1,1.4,2.4,2.7,4,3.6c0.5-0.2,1-0.5,1.5-0.7c2.8-1.3,6.1-1.3,8.9-0.2
		c0.8,0.3,1.5,0.7,2.2,1C434.5,133.1,434.9,132.8,435.4,132.5z"/>
</g>
<g>
	
		<ellipse transform="matrix(0.8917 -0.4527 0.4527 0.8917 -83.1455 121.6385)" class="st1" cx="212.6" cy="234.5" rx="19.8" ry="8.8"/>
	<path class="st0" d="M209.8,230.5c8.8-4.5,17.5-5.3,20.8-2.2c0.1-1,0-1.9-0.4-2.7c-2.2-4.3-11.9-3.8-21.6,1.1
		c-9.7,4.9-15.9,12.5-13.7,16.8c0.2,0.4,0.5,0.8,0.9,1.1C196.3,240.3,201.9,234.5,209.8,230.5z"/>
</g>
<g>
	
		<ellipse transform="matrix(0.5301 -0.8479 0.8479 0.5301 -39.0618 396.3948)" class="st1" cx="338.1" cy="233.4" rx="5.9" ry="13.3"/>
	<path class="st0" d="M339.5,230.5c5.6,3.5,9.1,8.2,8.5,11.2c0.6-0.3,1.1-0.6,1.4-1.1c1.7-2.8-1.9-8.2-8.1-12s-12.7-4.8-14.4-2
		c-0.2,0.3-0.3,0.6-0.3,0.9C329.2,226.1,334.5,227.3,339.5,230.5z"/>
</g>
<path class="st0" d="M280.1,255c-7.7-1-14.5,1.7-15,6c0,0.3,0,0.6,0,0.9c1.7-3.5,7.7-5.5,14.6-4.6c7.2,0.9,12.7,4.8,13,8.8
	c0.2-0.4,0.4-0.9,0.4-1.4C293.7,260.4,287.9,256.1,280.1,255z"/>
<circle class="st1" cx="87.9" cy="147.7" r="4.1"/>
<circle class="st1" cx="325.2" cy="34.1" r="1.8"/>
<circle class="st1" cx="351.1" cy="68.1" r="1.8"/>
<circle class="st1" cx="45.1" cy="127.7" r="1.8"/>
<circle class="st5" cx="304.8" cy="100.3" r="2.4"/>
<circle class="st5" cx="403.9" cy="208.6" r="2.4"/>
<circle class="st5" cx="473.4" cy="212.6" r="2.4"/>
<circle class="st5" cx="102.3" cy="246.9" r="2.4"/>
<circle class="st5" cx="238.5" cy="76.2" r="2.4"/>
<polygon class="st5" points="212.2,133.5 215.4,135.3 212.2,137 210.4,140.2 208.7,136.9 205.6,135.2 208.8,133.5 210.6,130.3 "/>
<polygon class="st5" points="360.3,100.5 362.4,101.6 360.3,102.7 359.1,104.8 358,102.7 356,101.5 358.1,100.4 359.3,98.4 "/>
<polygon class="st5" points="118.1,199 120.1,200.1 118,201.2 116.8,203.3 115.8,201.2 113.7,200 115.8,198.9 117,196.9 "/>
<polygon class="st5" points="119.2,115.3 121.3,116.4 119.2,117.5 118,119.6 116.9,117.5 114.9,116.3 117,115.2 118.1,113.2 "/>
<polygon class="st5" points="56.5,240.2 58.5,241.4 56.4,242.5 55.2,244.5 54.1,242.4 52.1,241.2 54.2,240.1 55.4,238.1 "/>
<polygon class="st5" points="429.4,182.3 431.5,183.4 429.4,184.5 428.2,186.6 427.1,184.5 425.1,183.3 427.1,182.2 428.3,180.2 "/>
<polygon class="st5" points="454.7,264.9 456.8,266.1 454.7,267.2 453.5,269.2 452.4,267.1 450.4,266 452.5,264.9 453.6,262.8 "/>
<path class="st8" d="M234.6,198.8c11.3-3.4,23.3-5.3,35.7-5.3c8.2,0,16.3,0.8,24,2.4c7.4-7.8,11.9-18.3,11.9-29.8
	c0-23.9-19.4-43.3-43.3-43.3c-23.9,0-43.3,19.4-43.3,43.3C219.7,179.1,225.5,190.8,234.6,198.8z"/>
<path class="st9" d="M284.8,194.4c1.7-2.2,3.8-4.1,6.4-5.2c1.2-0.5,5.4-1.1,9.2-2.1c1.2-2.2,2.3-4.6,3.1-7.1
	c-5.9-0.9-16.4,4.3-18.9,6.5c-2.3,1.9-4.2,4.3-6.7,6c-0.6,0.4-1.3,0.8-2,1.2C279,193.8,281.9,194.1,284.8,194.4z"/>
<path class="st9" d="M220,160.7c12.8,1.8,34.4-7.3,41.4-8.7c14.1-2.7,28.5,0.5,42.9,1c-1-3.1-2.3-6.1-4-8.9
	c-5.3,0.2-10.8-0.7-16.2-0.9c-10.1-0.3-20.2,2.4-30.2,1.8c-4.7-0.3-15.2-4.4-24.7-6C224.3,145.1,221,152.5,220,160.7z"/>
<path class="st9" d="M263,122.8c-4.4,0-8.6,0.7-12.6,1.9c5.4,3.1,16.3,4.2,18.8,4.5c4.5,0.6,9.5,0.8,13.4-1.6c0.1,0,0.1-0.1,0.2-0.1
	C276.8,124.5,270.1,122.8,263,122.8z"/>
<path class="st9" d="M306.3,166.7c-12.5-3.2-25.7-3.4-38.3-0.7c-6.8,1.5-13.4,3.8-20.2,5.5c-8.5,2.1-17.3,3.1-26.1,3.1
	c-0.4,0-0.7,0-1.1,0c1.7,8.7,6,16.4,12.1,22.4c10.4-3.7,20.3-8.5,29.6-14.4c8.1-5.1,16.3-11.2,25.9-12.1c6-0.5,11.8,1,17.7,2.2
	C306.1,170.7,306.3,168.7,306.3,166.7z"/>
</svg>
