<?xml version="1.0" encoding="utf-8"?>
<!-- Generator: Adobe Illustrator 16.0.0, SVG Export Plug-In . SVG Version: 6.00 Build 0)  -->
<!DOCTYPE svg PUBLIC "-//W3C//DTD SVG 1.1//EN" "http://www.w3.org/Graphics/SVG/1.1/DTD/svg11.dtd">
<svg version="1.1" id="Capa_1" xmlns="http://www.w3.org/2000/svg" xmlns:xlink="http://www.w3.org/1999/xlink" x="0px" y="0px"
	 width="526.531px" height="302.041px" viewBox="0 0 526.531 302.041" enable-background="new 0 0 526.531 302.041"
	 xml:space="preserve">
<g>
	<path fill="#4B3E8B" d="M361.093,172.941c-4.719,0-7.734,1.966-9.045,6.029c-0.786,2.36-1.049,4.981-1.049,24.514
		s0.263,22.154,1.049,24.514c1.311,4.063,4.326,6.03,9.045,6.03c4.588,0,7.734-1.967,9.045-6.03
		c0.787-2.359,1.049-4.981,1.049-24.514s-0.262-22.153-1.049-24.514C368.828,174.907,365.681,172.941,361.093,172.941z"/>
	<path fill="#4B3E8B" d="M495.47,175.327c-8.352-4.205-18.332-4.033-27.396-1.746c-5.79,1.46-11.477,3.748-17.449,3.786
		c-5.97,0.039-12.539-2.952-14.269-8.666c-1.819-6.009,2.327-12.212,7.08-16.312c9.671-8.336,22.601-12.502,31.382-21.77
		c8.452-8.919,12.008-22.212,9.141-34.159c-2.868-11.947-12.072-22.177-23.65-26.287c-29.509-10.474-61.66,18.082-91.833,9.715
		c-2.241-0.621-4.599-1.58-5.778-3.583c-1.149-1.955-0.887-4.436-0.226-6.607c3.696-12.15,18.054-19.885,18.683-32.57
		c0.342-6.896-3.735-13.348-8.874-17.959c-35.31-31.684-86.476,6.005-122.478,17.902C190.597,56.636,130.248,72.978,70.883,92.137
		c-22.182,7.159-47.872,18.307-51.982,41.249c-2.678,14.947,6.004,30.593,19.08,38.315c6.383,3.77,14.217,6.423,17.557,13.041
		c5.188,10.285-4.134,22.077-13.979,28.057c-9.844,5.982-21.852,10.726-26.333,21.335c-2.954,6.995-1.795,15.14,1.128,22.146
		c10.724,25.692,41.99,36.943,69.797,35.569s54.179-12.207,81.456-17.786c30.766-6.291,62.021-5.825,93.44-3.068v-15.682h-41.462
		c-3.778,0-6.84-3.063-6.84-6.84v-17.955c0-3.773,3.062-6.839,6.84-6.839h88.342c3.776,0,6.839,3.065,6.839,6.839v17.955
		c0,3.777-3.063,6.84-6.839,6.84h-41.465v16.181c62.466,5.971,125.499,19.972,186.53,6.969c14.552-3.102,29.207-7.953,40.445-17.7
		c12.667-10.988,19.86-27.567,20.944-44.302C515.418,200.496,509.758,182.521,495.47,175.327z M191.078,232.849
		c-3.539,10.88-13.633,16.648-26.349,16.648c-15.206,0-25.824-7.997-27.397-19.664c-0.131-0.655,0.262-1.311,1.049-1.441
		l14.158-2.753c0.786-0.131,1.311,0.262,1.573,1.049c1.573,4.194,4.719,7.341,10.356,7.341c4.457,0,7.997-2.098,9.308-6.292
		c0.786-2.098,1.048-4.589,1.048-8.652c0-4.326-0.262-6.686-1.048-8.782c-1.442-4.457-4.981-6.162-9.308-6.162
		c-4.85,0-7.734,2.491-9.045,5.113c-0.393,0.917-0.787,1.311-1.704,1.311h-14.026c-0.787,0-1.311-0.524-1.311-1.311v-49.027
		c0-0.786,0.524-1.311,1.311-1.311h49.813c0.787,0,1.311,0.524,1.311,1.311v12.978c0,0.787-0.524,1.312-1.311,1.312h-34.214
		c-0.524,0-0.786,0.262-0.786,0.786v17.565h0.393c2.229-1.966,6.686-4.194,13.371-4.194c11.405,0,19.663,5.112,22.94,15.075
		c1.18,3.67,1.835,7.734,1.835,15.206C193.044,224.59,192.258,229.178,191.078,232.849z M314.765,214.502
		c0,3.775-3.063,6.837-6.839,6.837h-88.342c-3.778,0-6.84-3.062-6.84-6.837v-17.956c0-3.776,3.062-6.838,6.84-6.838h88.342
		c3.776,0,6.839,3.062,6.839,6.838V214.502z M314.765,180.525c0,3.777-3.063,6.841-6.839,6.841h-88.342
		c-3.778,0-6.84-3.063-6.84-6.841v-17.953c0-3.776,3.062-6.838,6.84-6.838h88.342c3.776,0,6.839,3.062,6.839,6.838V180.525z
		 M387.966,231.275c-3.67,11.404-12.847,18.222-26.873,18.222s-23.202-6.817-26.873-18.222c-1.311-3.933-1.966-7.996-1.966-27.791
		c0-19.794,0.655-23.857,1.966-27.79c3.671-11.405,12.847-18.222,26.873-18.222s23.203,6.816,26.873,18.222
		c1.312,3.933,1.967,7.996,1.967,27.79C389.933,223.279,389.278,227.343,387.966,231.275z"/>
</g>
<circle fill="#70C9EB" cx="87.867" cy="147.741" r="4.083"/>
<circle fill="#70C9EB" cx="175.534" cy="90.741" r="4.083"/>
<circle fill="#70C9EB" cx="325.175" cy="34.086" r="1.832"/>
<circle fill="#70C9EB" cx="351.142" cy="68.063" r="1.832"/>
<circle fill="#70C9EB" cx="386.266" cy="140.157" r="1.832"/>
<circle fill="#70C9EB" cx="45.148" cy="127.69" r="1.832"/>
<circle fill="#FFFFFF" cx="304.761" cy="100.259" r="2.358"/>
<circle fill="#FFFFFF" cx="403.859" cy="208.628" r="2.357"/>
<circle fill="#FFFFFF" cx="473.437" cy="212.552" r="2.358"/>
<circle fill="#FFFFFF" cx="102.316" cy="246.949" r="2.358"/>
<circle fill="#FFFFFF" cx="238.484" cy="76.228" r="2.358"/>
<polygon fill="#FFFFFF" points="212.247,133.539 215.391,135.335 212.182,137.013 210.385,140.157 208.708,136.948 205.563,135.152 
	208.772,133.474 210.569,130.33 "/>
<polygon fill="#FFFFFF" points="443.486,103.068 446.63,104.864 443.421,106.542 441.625,109.687 439.947,106.478 436.802,104.681 
	440.011,103.003 441.808,99.859 "/>
<polygon fill="#FFFFFF" points="360.348,100.452 362.402,101.625 360.307,102.721 359.132,104.773 358.039,102.678 355.984,101.505 
	358.08,100.41 359.253,98.357 "/>
<polygon fill="#FFFFFF" points="118.063,198.976 120.116,200.149 118.021,201.244 116.848,203.298 115.752,201.202 113.7,200.028 
	115.795,198.933 116.968,196.88 "/>
<polygon fill="#FFFFFF" points="119.236,115.255 121.289,116.429 119.194,117.523 118.021,119.576 116.926,117.481 114.874,116.308 
	116.968,115.213 118.142,113.161 "/>
<polygon fill="#FFFFFF" points="56.456,240.192 58.509,241.366 56.414,242.46 55.241,244.513 54.145,242.419 52.093,241.246 
	54.188,240.149 55.361,238.097 "/>
<polygon fill="#FFFFFF" points="429.416,182.265 431.466,183.438 429.373,184.532 428.199,186.586 427.103,184.491 425.05,183.317 
	427.144,182.222 428.318,180.169 "/>
<polygon fill="#FFFFFF" points="454.744,264.901 456.796,266.075 454.703,267.169 453.531,269.224 452.433,267.128 450.382,265.955 
	452.476,264.86 453.65,262.806 "/>
<circle fill="#ED9500" cx="223.622" cy="248.868" r="1.553"/>
<circle fill="#ED9500" cx="228.663" cy="248.868" r="1.553"/>
<circle fill="#3E454D" cx="226.217" cy="235.235" r="4.777"/>
<circle fill="#ED9500" cx="233.843" cy="248.868" r="1.553"/>
<rect x="270.736" y="245.25" fill="#70C9EB" width="34.354" height="3.863"/>
<rect x="270.736" y="237.225" fill="#70C9EB" width="34.354" height="3.86"/>
<rect x="270.736" y="229.199" fill="#70C9EB" width="34.354" height="3.861"/>
<circle fill="#ED9500" cx="223.622" cy="215.328" r="1.553"/>
<circle fill="#ED9500" cx="228.663" cy="215.328" r="1.553"/>
<circle fill="#3E454D" cx="226.217" cy="201.695" r="4.777"/>
<circle fill="#ED9500" cx="233.843" cy="215.328" r="1.553"/>
<rect x="270.736" y="211.71" fill="#70C9EB" width="34.354" height="3.863"/>
<rect x="270.736" y="203.685" fill="#70C9EB" width="34.354" height="3.86"/>
<rect x="270.736" y="195.659" fill="#70C9EB" width="34.354" height="3.861"/>
<circle fill="#ED9500" cx="223.622" cy="181.33" r="1.553"/>
<circle fill="#ED9500" cx="228.663" cy="181.33" r="1.553"/>
<circle fill="#3E454D" cx="226.217" cy="167.697" r="4.777"/>
<circle fill="#ED9500" cx="233.843" cy="181.33" r="1.553"/>
<rect x="270.736" y="177.712" fill="#70C9EB" width="34.354" height="3.863"/>
<rect x="270.736" y="169.687" fill="#70C9EB" width="34.354" height="3.86"/>
<rect x="270.736" y="161.661" fill="#70C9EB" width="34.354" height="3.861"/>
</svg>
